<svg width="255" height="120" viewBox="0 0 255 120" fill="none" xmlns="http://www.w3.org/2000/svg">
<rect width="255" height="120" rx="25" fill="white"/>
<path d="M128.2 84.2727H130.082L130.091 82.2397C133.9 81.9645 136.083 79.8693 136.092 76.8952C136.083 73.7436 133.482 72.3054 130.748 71.6573L130.162 71.5064L130.197 66.4371C131.618 66.6857 132.532 67.538 132.674 68.8164H135.844C135.79 65.9933 133.571 63.9336 130.215 63.614L130.224 61.5455H128.342L128.333 63.614C125.004 63.9513 122.607 65.9933 122.616 68.9318C122.616 71.5419 124.471 73.0423 127.463 73.8146L128.262 74.0188L128.227 79.3899C126.637 79.1413 125.492 78.2358 125.377 76.6289H122.136C122.261 79.9581 124.551 81.9379 128.209 82.2397L128.2 84.2727ZM130.109 79.3899L130.144 74.516C131.76 74.9865 132.79 75.608 132.799 76.8686C132.79 78.1825 131.733 79.1236 130.109 79.3899ZM128.28 71.027C127.055 70.6364 125.936 69.9883 125.954 68.7276C125.963 67.5824 126.824 66.6946 128.315 66.4371L128.28 71.027ZM146.246 63.8182H143.112L138.594 66.7212V69.7397L142.846 67.0231H142.953V82H146.246V63.8182ZM150.863 82H163.327V79.2479H155.408V79.1236L158.542 75.9364C162.076 72.5451 163.052 70.8938 163.052 68.843C163.052 65.7979 160.575 63.5696 156.918 63.5696C153.313 63.5696 150.756 65.8068 150.756 69.2603H153.89C153.89 67.4048 155.062 66.2418 156.873 66.2418C158.604 66.2418 159.892 67.2983 159.892 69.0117C159.892 70.5298 158.968 71.6129 157.175 73.4329L150.863 79.6207V82ZM170.199 79.5142H167.358L167.296 80.5085C167.145 82.9144 166.514 85.3647 166.257 86.4389H168.423C168.849 85.3203 169.835 82.728 170.083 80.4908L170.199 79.5142ZM173.868 82H177.286L185.009 66.6325V63.8182H172.625V66.5703H181.6V66.6946L173.868 82ZM193.951 82.2486C197.796 82.2486 200.477 79.6385 200.477 76.0252C200.477 72.5273 198.044 70.006 194.742 70.006C193.268 70.006 191.963 70.592 191.288 71.391H191.182L191.705 66.5703H199.527V63.8182H188.98L188.03 73.1932L191.004 73.6815C191.617 73.0067 192.771 72.554 193.863 72.5629C195.86 72.5717 197.298 74.0455 197.29 76.1051C197.298 78.1381 195.896 79.5852 193.951 79.5852C192.309 79.5852 190.986 78.5465 190.871 77.055H187.675C187.764 80.0735 190.4 82.2486 193.951 82.2486ZM210.171 82.3462C214.557 82.3551 217.176 78.8928 217.176 72.9268C217.176 66.9964 214.539 63.5696 210.171 63.5696C205.803 63.5696 203.176 66.9876 203.167 72.9268C203.167 78.8839 205.786 82.3462 210.171 82.3462ZM210.171 79.5675C207.907 79.5675 206.487 77.2947 206.496 72.9268C206.505 68.5945 207.916 66.3129 210.171 66.3129C212.435 66.3129 213.847 68.5945 213.856 72.9268C213.856 77.2947 212.444 79.5675 210.171 79.5675Z" fill="#232323"/>
<path d="M122.409 35.3636V47H123.727V38.1591H123.841L127.477 47H128.75L132.386 38.1591H132.5V47H133.818V35.3636H132.136L128.182 45.0227H128.045L124.091 35.3636H122.409ZM137.325 50.2727C138.536 50.2727 139.388 49.6307 139.893 48.2727L143.609 38.2955L142.143 38.2727L139.734 45.2273H139.643L137.234 38.2727H135.78L139.007 47.0455L138.757 47.7273C138.268 49.0568 137.666 49.1818 136.689 48.9318L136.348 50.1136C136.484 50.1818 136.871 50.2727 137.325 50.2727ZM150.065 47H154.27C157.02 47 158.156 45.6591 158.156 43.9091C158.156 42.0682 156.884 41.0682 155.815 41V40.8864C156.815 40.6136 157.702 39.9545 157.702 38.4545C157.702 36.75 156.565 35.3636 154.134 35.3636H150.065V47ZM151.474 45.75V41.7045H154.338C155.861 41.7045 156.815 42.7273 156.815 43.9091C156.815 44.9318 156.111 45.75 154.27 45.75H151.474ZM151.474 40.4773V36.6136H154.134C155.679 36.6136 156.361 37.4318 156.361 38.4545C156.361 39.6818 155.361 40.4773 154.088 40.4773H151.474ZM162.858 47.2045C164.381 47.2045 165.176 46.3864 165.449 45.8182H165.517V47H166.858V41.25C166.858 38.4773 164.744 38.1591 163.631 38.1591C162.312 38.1591 160.812 38.6136 160.131 40.2045L161.403 40.6591C161.699 40.0227 162.398 39.3409 163.676 39.3409C164.909 39.3409 165.517 39.9943 165.517 41.1136V41.1591C165.517 41.8068 164.858 41.75 163.267 41.9545C161.648 42.1648 159.881 42.5227 159.881 44.5227C159.881 46.2273 161.199 47.2045 162.858 47.2045ZM163.062 46C161.994 46 161.222 45.5227 161.222 44.5909C161.222 43.5682 162.153 43.25 163.199 43.1136C163.767 43.0455 165.29 42.8864 165.517 42.6136V43.8409C165.517 44.9318 164.653 46 163.062 46ZM170.646 35.3636H169.305V47H170.646V35.3636ZM175.67 47.2045C177.193 47.2045 177.989 46.3864 178.261 45.8182H178.33V47H179.67V41.25C179.67 38.4773 177.557 38.1591 176.443 38.1591C175.125 38.1591 173.625 38.6136 172.943 40.2045L174.216 40.6591C174.511 40.0227 175.21 39.3409 176.489 39.3409C177.722 39.3409 178.33 39.9943 178.33 41.1136V41.1591C178.33 41.8068 177.67 41.75 176.08 41.9545C174.46 42.1648 172.693 42.5227 172.693 44.5227C172.693 46.2273 174.011 47.2045 175.67 47.2045ZM175.875 46C174.807 46 174.034 45.5227 174.034 44.5909C174.034 43.5682 174.966 43.25 176.011 43.1136C176.58 43.0455 178.102 42.8864 178.33 42.6136V43.8409C178.33 44.9318 177.466 46 175.875 46ZM183.459 41.75C183.459 40.2273 184.402 39.3636 185.686 39.3636C186.93 39.3636 187.686 40.1761 187.686 41.5455V47H189.027V41.4545C189.027 39.2273 187.839 38.1591 186.072 38.1591C184.754 38.1591 183.936 38.75 183.527 39.6364H183.413V38.2727H182.118V47H183.459V41.75ZM195.023 47.1818C196.955 47.1818 198.227 46 198.455 44.4545H197.114C196.864 45.4091 196.068 45.9773 195.023 45.9773C193.432 45.9773 192.409 44.6591 192.409 42.6364C192.409 40.6591 193.455 39.3636 195.023 39.3636C196.205 39.3636 196.909 40.0909 197.114 40.8864H198.455C198.227 39.25 196.841 38.1591 195 38.1591C192.636 38.1591 191.068 40.0227 191.068 42.6818C191.068 45.2955 192.568 47.1818 195.023 47.1818ZM204.074 47.1818C205.847 47.1818 207.142 46.2955 207.551 44.9773L206.256 44.6136C205.915 45.5227 205.125 45.9773 204.074 45.9773C202.5 45.9773 201.415 44.9602 201.352 43.0909H207.688V42.5227C207.688 39.2727 205.756 38.1591 203.938 38.1591C201.574 38.1591 200.006 40.0227 200.006 42.7045C200.006 45.3864 201.551 47.1818 204.074 47.1818ZM201.352 41.9318C201.443 40.5739 202.403 39.3636 203.938 39.3636C205.392 39.3636 206.324 40.4545 206.324 41.9318H201.352Z" fill="#718EBF"/>
<circle cx="71" cy="60" r="35" fill="#FFF5D9"/>
<g clip-path="url(#clip0_152_665)">
<path d="M65.9901 50.625H76.0101L78.1726 48.895C78.9089 48.3075 79.1839 47.3537 78.8726 46.4638C78.5614 45.5738 77.7526 45 76.8126 45H65.1876C64.2476 45 63.4389 45.575 63.1276 46.4638C62.8164 47.3525 63.0914 48.3075 63.8264 48.8937L65.9901 50.625Z" fill="#FFBB38"/>
<path d="M76.1813 52.5H65.8187C62.405 55.8512 59.75 61.7312 59.75 66.5625C59.75 70.7612 61.9725 75 66.9375 75H75.375C79.6162 75 82.25 71.7663 82.25 66.5625C82.25 61.7312 79.595 55.8512 76.1813 52.5ZM70.525 62.8125H71.475C72.9362 62.8125 74.125 64.0013 74.125 65.4625C74.125 66.7763 73.1775 67.8575 71.9375 68.0775V69.0613C71.9375 69.5788 71.5175 69.9988 71 69.9988C70.4825 69.9988 70.0625 69.5788 70.0625 69.0613V68.125H68.8125C68.295 68.125 67.875 67.705 67.875 67.1875C67.875 66.67 68.295 66.25 68.8125 66.25H71.475C71.9025 66.25 72.25 65.9025 72.25 65.475C72.25 65.035 71.9025 64.6875 71.475 64.6875H70.525C69.0638 64.6875 67.875 63.4987 67.875 62.0375C67.875 60.7238 68.8225 59.6425 70.0625 59.4225V58.4375C70.0625 57.92 70.4825 57.5 71 57.5C71.5175 57.5 71.9375 57.92 71.9375 58.4375V59.375H73.1875C73.705 59.375 74.125 59.795 74.125 60.3125C74.125 60.83 73.705 61.25 73.1875 61.25H70.525C70.0975 61.25 69.75 61.5975 69.75 62.025C69.75 62.465 70.0975 62.8125 70.525 62.8125Z" fill="#FFBB38"/>
</g>
<defs>
<clipPath id="clip0_152_665">
<rect width="30" height="30" fill="white" transform="translate(56 45)"/>
</clipPath>
</defs>
</svg>
