<svg width="255" height="120" viewBox="0 0 255 120" fill="none" xmlns="http://www.w3.org/2000/svg">
<rect width="255" height="120" rx="25" fill="white"/>
<path d="M133.2 84.2727H135.082L135.091 82.2397C138.9 81.9645 141.083 79.8693 141.092 76.8952C141.083 73.7436 138.482 72.3054 135.748 71.6573L135.162 71.5064L135.197 66.4371C136.618 66.6857 137.532 67.538 137.674 68.8164H140.844C140.79 65.9933 138.571 63.9336 135.215 63.614L135.224 61.5455H133.342L133.333 63.614C130.004 63.9513 127.607 65.9933 127.616 68.9318C127.616 71.5419 129.471 73.0423 132.463 73.8146L133.262 74.0188L133.227 79.3899C131.637 79.1413 130.492 78.2358 130.377 76.6289H127.136C127.261 79.9581 129.551 81.9379 133.209 82.2397L133.2 84.2727ZM135.109 79.3899L135.144 74.516C136.76 74.9865 137.79 75.608 137.799 76.8686C137.79 78.1825 136.733 79.1236 135.109 79.3899ZM133.28 71.027C132.055 70.6364 130.936 69.9883 130.954 68.7276C130.963 67.5824 131.824 66.6946 133.315 66.4371L133.28 71.027ZM150.376 82.2486C154.265 82.2486 157.097 80.0202 157.088 76.9485C157.097 74.6758 155.676 73.0423 153.128 72.6783V72.5362C155.099 72.1101 156.422 70.6452 156.413 68.6033C156.422 65.8335 154.061 63.5696 150.43 63.5696C146.896 63.5696 144.162 65.6737 144.091 68.7188H147.26C147.313 67.1918 148.734 66.2418 150.412 66.2418C152.108 66.2418 153.235 67.2717 153.226 68.7987C153.235 70.3878 151.921 71.4442 150.039 71.4442H148.432V73.9833H150.039C152.338 73.9833 153.706 75.1374 153.697 76.7798C153.706 78.3867 152.312 79.4876 150.367 79.4876C148.539 79.4876 147.127 78.5376 147.047 77.055H143.709C143.798 80.1268 146.541 82.2486 150.376 82.2486ZM163.407 79.5142H160.566L160.504 80.5085C160.353 82.9144 159.722 85.3647 159.465 86.4389H161.631C162.057 85.3203 163.043 82.728 163.291 80.4908L163.407 79.5142ZM166.643 78.6264H175.316V82H178.459V78.6264H180.785V75.9187H178.459V63.8182H174.358L166.643 76.0075V78.6264ZM175.352 75.9187H170.016V75.7766L175.21 67.5469H175.352V75.9187ZM190.28 82.2486C194.204 82.2752 196.841 79.5763 196.832 75.9808C196.841 72.5451 194.39 70.0593 191.203 70.0593C189.25 70.0593 187.528 71.0092 186.658 72.5717H186.534C186.542 68.7454 187.945 66.4194 190.466 66.4194C192.029 66.4194 193.085 67.3249 193.423 68.7188H196.663C196.273 65.7802 193.902 63.5696 190.466 63.5696C186.099 63.5696 183.338 67.2095 183.338 73.424C183.329 80.0913 186.791 82.2308 190.28 82.2486ZM190.262 79.5852C188.318 79.5852 186.898 77.9783 186.889 76.0785C186.906 74.1697 188.38 72.5717 190.307 72.5717C192.233 72.5717 193.645 74.0987 193.636 76.0518C193.645 78.0405 192.189 79.5852 190.262 79.5852ZM206.553 82.3462C210.939 82.3551 213.558 78.8928 213.558 72.9268C213.558 66.9964 210.921 63.5696 206.553 63.5696C202.185 63.5696 199.557 66.9876 199.548 72.9268C199.548 78.8839 202.167 82.3462 206.553 82.3462ZM206.553 79.5675C204.289 79.5675 202.869 77.2947 202.878 72.9268C202.887 68.5945 204.298 66.3129 206.553 66.3129C208.817 66.3129 210.229 68.5945 210.237 72.9268C210.237 77.2947 208.826 79.5675 206.553 79.5675Z" fill="#232323"/>
<path d="M127.409 47H134.523V45.75H128.818V41.7955H134.068V40.5455H128.818V36.6136H134.432V35.3636H127.409V47ZM137.79 38.2727H136.244L139.017 42.6364L136.244 47H137.79L139.881 43.6136L141.972 47H143.517L140.699 42.6364L143.517 38.2727H141.972L139.881 41.8409L137.79 38.2727ZM145.43 50.2727H146.771V45.6591H146.885C147.18 46.1364 147.749 47.1818 149.43 47.1818C151.612 47.1818 153.135 45.4318 153.135 42.6591C153.135 39.9091 151.612 38.1591 149.408 38.1591C147.703 38.1591 147.18 39.2045 146.885 39.6591H146.726V38.2727H145.43V50.2727ZM146.749 42.6364C146.749 40.6818 147.612 39.3636 149.249 39.3636C150.953 39.3636 151.794 40.7955 151.794 42.6364C151.794 44.5 150.93 45.9773 149.249 45.9773C147.635 45.9773 146.749 44.6136 146.749 42.6364ZM158.839 47.1818C160.612 47.1818 161.908 46.2955 162.317 44.9773L161.021 44.6136C160.68 45.5227 159.891 45.9773 158.839 45.9773C157.266 45.9773 156.18 44.9602 156.118 43.0909H162.453V42.5227C162.453 39.2727 160.521 38.1591 158.703 38.1591C156.339 38.1591 154.771 40.0227 154.771 42.7045C154.771 45.3864 156.317 47.1818 158.839 47.1818ZM156.118 41.9318C156.209 40.5739 157.169 39.3636 158.703 39.3636C160.158 39.3636 161.089 40.4545 161.089 41.9318H156.118ZM165.834 41.75C165.834 40.2273 166.777 39.3636 168.061 39.3636C169.305 39.3636 170.061 40.1761 170.061 41.5455V47H171.402V41.4545C171.402 39.2273 170.214 38.1591 168.447 38.1591C167.129 38.1591 166.311 38.75 165.902 39.6364H165.788V38.2727H164.493V47H165.834V41.75ZM180.034 40.2273C179.614 38.9886 178.67 38.1591 176.943 38.1591C175.102 38.1591 173.739 39.2045 173.739 40.6818C173.739 41.8864 174.455 42.6932 176.057 43.0682L177.511 43.4091C178.392 43.6136 178.807 44.0341 178.807 44.6364C178.807 45.3864 178.011 46 176.761 46C175.665 46 174.977 45.5284 174.739 44.5909L173.466 44.9091C173.778 46.392 175 47.1818 176.784 47.1818C178.812 47.1818 180.193 46.0739 180.193 44.5682C180.193 43.3523 179.432 42.5852 177.875 42.2045L176.58 41.8864C175.545 41.6307 175.08 41.2841 175.08 40.6136C175.08 39.8636 175.875 39.3182 176.943 39.3182C178.114 39.3182 178.597 39.9659 178.83 40.5682L180.034 40.2273ZM185.871 47.1818C187.643 47.1818 188.939 46.2955 189.348 44.9773L188.053 44.6136C187.712 45.5227 186.922 45.9773 185.871 45.9773C184.297 45.9773 183.212 44.9602 183.149 43.0909H189.484V42.5227C189.484 39.2727 187.553 38.1591 185.734 38.1591C183.371 38.1591 181.803 40.0227 181.803 42.7045C181.803 45.3864 183.348 47.1818 185.871 47.1818ZM183.149 41.9318C183.24 40.5739 184.2 39.3636 185.734 39.3636C187.189 39.3636 188.121 40.4545 188.121 41.9318H183.149Z" fill="#718EBF"/>
<circle cx="76" cy="60" r="35" fill="#FFE0EB"/>
<path d="M86.1323 45C84.4164 45 83.0254 46.391 83.0254 48.1069V57.3773H88.3604C88.8457 57.3773 89.2393 56.9838 89.2393 56.4984V48.1069C89.2393 46.391 87.8482 45 86.1323 45V45Z" fill="#FF82AC"/>
<path d="M71.6266 67.0898C71.6266 61.7805 75.9456 57.4076 81.3261 57.4223V48.4855C81.3261 47.1486 81.8293 45.9271 82.656 45H67.1541C64.7318 45 62.7607 46.9711 62.7607 49.3934V74.1053C62.7607 74.8959 63.7279 75.2844 64.2748 74.7129L65.3992 73.5387L66.5869 74.727C66.9297 75.0697 67.4863 75.0697 67.8297 74.727L68.9553 73.602L70.092 74.7293C70.4348 75.0691 70.9873 75.0691 71.3301 74.7293L72.485 73.5844L73.6404 74.7293C73.9826 75.0691 74.5346 75.0691 74.8773 74.7299L75.1012 74.5084C72.922 72.6864 71.6266 69.9923 71.6266 67.0898ZM69.8709 52.0898H71.6055V50.3552C71.6055 49.8698 71.999 49.4763 72.4844 49.4763C72.9698 49.4763 73.3633 49.8698 73.3633 50.3552V52.0898H75.0979C75.5833 52.0898 75.9768 52.4834 75.9768 52.9688C75.9768 53.4541 75.5833 53.8477 75.0979 53.8477H73.3633V55.5823C73.3633 56.0677 72.9698 56.4612 72.4844 56.4612C71.999 56.4612 71.6055 56.0677 71.6055 55.5823V53.8477H69.8709C69.3855 53.8477 68.992 53.4541 68.992 52.9688C68.992 52.4834 69.3855 52.0898 69.8709 52.0898ZM67.2109 58.2451H73.1289C73.6143 58.2451 74.0078 58.6386 74.0078 59.124C74.0078 59.6094 73.6143 60.0029 73.1289 60.0029H67.2109C66.7255 60.0029 66.332 59.6094 66.332 59.124C66.332 58.6386 66.7255 58.2451 67.2109 58.2451ZM70.1435 67.0283H67.205C66.7196 67.0283 66.3261 66.6348 66.3261 66.1494C66.3261 65.664 66.7196 65.2705 67.205 65.2705H70.1435C70.6289 65.2705 71.0224 65.664 71.0224 66.1494C71.0224 66.6348 70.6289 67.0283 70.1435 67.0283ZM70.7295 63.5186H67.2079C66.7225 63.5186 66.329 63.125 66.329 62.6396C66.329 62.1543 66.7225 61.7607 67.2079 61.7607H70.7295C71.2149 61.7607 71.6084 62.1543 71.6084 62.6396C71.6084 63.125 71.2149 63.5186 70.7295 63.5186Z" fill="#FF82AC"/>
<path d="M81.2947 59.1797C76.933 59.1797 73.3845 62.7282 73.3845 67.0898C73.3845 71.4515 76.933 75 81.2947 75C85.6563 75 89.2048 71.4515 89.2048 67.0898C89.2048 62.7282 85.6563 59.1797 81.2947 59.1797ZM82.1763 70.4747V70.5583C82.1763 71.0437 81.7828 71.4372 81.2974 71.4372C80.812 71.4372 80.4185 71.0437 80.4185 70.5583V70.5434C80.0248 70.4496 79.6596 70.2945 79.3699 70.105C78.9637 69.8392 78.8499 69.2946 79.1156 68.8883C79.3814 68.482 79.926 68.3682 80.3323 68.634C80.692 68.8693 81.285 68.9587 81.5764 68.8216C81.7652 68.7327 81.9114 68.543 81.9317 68.3603C81.9752 67.9712 81.3655 67.7541 81.0015 67.6103C80.4506 67.3927 79.7649 67.1219 79.3669 66.4033C78.7995 65.3791 79.2965 64.0287 80.4185 63.5669V63.5227C80.4185 63.0373 80.812 62.6437 81.2974 62.6437C81.778 62.6437 82.168 63.0296 82.1756 63.5084C82.492 63.6073 82.7834 63.7655 83.0167 63.9807C83.3736 64.3098 83.396 64.8658 83.0669 65.2226C82.7378 65.5795 82.1817 65.6019 81.825 65.2728C81.6804 65.1394 81.2348 65.0856 81.0411 65.2156C80.9109 65.3031 80.8599 65.4709 80.9045 65.5514C81.0901 65.8865 82.0622 66.0013 82.7978 66.5746C84.3007 67.7457 83.7778 69.8604 82.1763 70.4747Z" fill="#FF82AC"/>
</svg>
