<svg width="255" height="120" viewBox="0 0 255 120" fill="none" xmlns="http://www.w3.org/2000/svg">
<rect width="255" height="120" rx="25" fill="white"/>
<path d="M133.2 84.2727H135.082L135.091 82.2397C138.9 81.9645 141.083 79.8693 141.092 76.8952C141.083 73.7436 138.482 72.3054 135.748 71.6573L135.162 71.5064L135.197 66.4371C136.618 66.6857 137.532 67.538 137.674 68.8164H140.844C140.79 65.9933 138.571 63.9336 135.215 63.614L135.224 61.5455H133.342L133.333 63.614C130.004 63.9513 127.607 65.9933 127.616 68.9318C127.616 71.5419 129.471 73.0423 132.463 73.8146L133.262 74.0188L133.227 79.3899C131.637 79.1413 130.492 78.2358 130.377 76.6289H127.136C127.261 79.9581 129.551 81.9379 133.209 82.2397L133.2 84.2727ZM135.109 79.3899L135.144 74.516C136.76 74.9865 137.79 75.608 137.799 76.8686C137.79 78.1825 136.733 79.1236 135.109 79.3899ZM133.28 71.027C132.055 70.6364 130.936 69.9883 130.954 68.7276C130.963 67.5824 131.824 66.6946 133.315 66.4371L133.28 71.027ZM150.172 82.2486C154.016 82.2486 156.697 79.6385 156.697 76.0252C156.697 72.5273 154.265 70.006 150.962 70.006C149.489 70.006 148.184 70.592 147.509 71.391H147.402L147.926 66.5703H155.747V63.8182H145.201L144.251 73.1932L147.225 73.6815C147.837 73.0067 148.991 72.554 150.083 72.5629C152.081 72.5717 153.519 74.0455 153.51 76.1051C153.519 78.1381 152.116 79.5852 150.172 79.5852C148.53 79.5852 147.207 78.5465 147.092 77.055H143.896C143.984 80.0735 146.621 82.2486 150.172 82.2486ZM162.87 79.5142H160.029L159.967 80.5085C159.816 82.9144 159.185 85.3647 158.928 86.4389H161.094C161.52 85.3203 162.506 82.728 162.754 80.4908L162.87 79.5142ZM172.384 82.2486C176.309 82.2752 178.945 79.5763 178.936 75.9808C178.945 72.5451 176.495 70.0593 173.308 70.0593C171.355 70.0593 169.632 71.0092 168.762 72.5717H168.638C168.647 68.7454 170.05 66.4194 172.571 66.4194C174.133 66.4194 175.19 67.3249 175.527 68.7188H178.768C178.377 65.7802 176.007 63.5696 172.571 63.5696C168.203 63.5696 165.442 67.2095 165.442 73.424C165.433 80.0913 168.896 82.2308 172.384 82.2486ZM172.367 79.5852C170.422 79.5852 169.002 77.9783 168.993 76.0785C169.011 74.1697 170.485 72.5717 172.411 72.5717C174.338 72.5717 175.749 74.0987 175.74 76.0518C175.749 78.0405 174.293 79.5852 172.367 79.5852ZM188.658 82.3462C193.043 82.3551 195.662 78.8928 195.662 72.9268C195.662 66.9964 193.025 63.5696 188.658 63.5696C184.29 63.5696 181.662 66.9876 181.653 72.9268C181.653 78.8839 184.272 82.3462 188.658 82.3462ZM188.658 79.5675C186.394 79.5675 184.973 77.2947 184.982 72.9268C184.991 68.5945 186.403 66.3129 188.658 66.3129C190.921 66.3129 192.333 68.5945 192.342 72.9268C192.342 77.2947 190.93 79.5675 188.658 79.5675ZM205.332 82.3462C209.718 82.3551 212.337 78.8928 212.337 72.9268C212.337 66.9964 209.7 63.5696 205.332 63.5696C200.964 63.5696 198.337 66.9876 198.328 72.9268C198.328 78.8839 200.947 82.3462 205.332 82.3462ZM205.332 79.5675C203.069 79.5675 201.648 77.2947 201.657 72.9268C201.666 68.5945 203.077 66.3129 205.332 66.3129C207.596 66.3129 209.008 68.5945 209.017 72.9268C209.017 77.2947 207.605 79.5675 205.332 79.5675Z" fill="#232323"/>
<path d="M128.818 35.3636H127.409V47H128.818V35.3636ZM132.803 41.75C132.803 40.2273 133.746 39.3636 135.03 39.3636C136.274 39.3636 137.03 40.1761 137.03 41.5455V47H138.371V41.4545C138.371 39.2273 137.183 38.1591 135.416 38.1591C134.098 38.1591 133.28 38.75 132.871 39.6364H132.757V38.2727H131.462V47H132.803V41.75ZM144.366 47.1818C146.298 47.1818 147.571 46 147.798 44.4545H146.457C146.207 45.4091 145.412 45.9773 144.366 45.9773C142.776 45.9773 141.753 44.6591 141.753 42.6364C141.753 40.6591 142.798 39.3636 144.366 39.3636C145.548 39.3636 146.253 40.0909 146.457 40.8864H147.798C147.571 39.25 146.185 38.1591 144.344 38.1591C141.98 38.1591 140.412 40.0227 140.412 42.6818C140.412 45.2955 141.912 47.1818 144.366 47.1818ZM153.304 47.1818C155.668 47.1818 157.259 45.3864 157.259 42.6818C157.259 39.9545 155.668 38.1591 153.304 38.1591C150.94 38.1591 149.349 39.9545 149.349 42.6818C149.349 45.3864 150.94 47.1818 153.304 47.1818ZM153.304 45.9773C151.509 45.9773 150.69 44.4318 150.69 42.6818C150.69 40.9318 151.509 39.3636 153.304 39.3636C155.099 39.3636 155.918 40.9318 155.918 42.6818C155.918 44.4318 155.099 45.9773 153.304 45.9773ZM159.305 47H160.646V41.5455C160.646 40.267 161.578 39.3636 162.624 39.3636C163.641 39.3636 164.351 40.0284 164.351 41.0227V47H165.714V41.3182C165.714 40.1932 166.419 39.3636 167.646 39.3636C168.601 39.3636 169.419 39.8693 169.419 41.1591V47H170.76V41.1591C170.76 39.108 169.658 38.1591 168.101 38.1591C166.851 38.1591 165.936 38.733 165.487 39.6364H165.396C164.964 38.7045 164.203 38.1591 163.055 38.1591C161.919 38.1591 161.078 38.7045 160.714 39.6364H160.601V38.2727H159.305V47ZM176.871 47.1818C178.643 47.1818 179.939 46.2955 180.348 44.9773L179.053 44.6136C178.712 45.5227 177.922 45.9773 176.871 45.9773C175.297 45.9773 174.212 44.9602 174.149 43.0909H180.484V42.5227C180.484 39.2727 178.553 38.1591 176.734 38.1591C174.371 38.1591 172.803 40.0227 172.803 42.7045C172.803 45.3864 174.348 47.1818 176.871 47.1818ZM174.149 41.9318C174.24 40.5739 175.2 39.3636 176.734 39.3636C178.189 39.3636 179.121 40.4545 179.121 41.9318H174.149Z" fill="#718EBF"/>
<circle cx="76" cy="60" r="35" fill="#E7EDFF"/>
<path d="M78.6871 59.843C82.7793 59.843 86.1081 56.5137 86.1081 52.4215C86.1081 48.3293 82.7793 45 78.6871 45C74.5949 45 71.2656 48.3293 71.2656 52.4215C71.2656 56.5137 74.5949 59.843 78.6871 59.843ZM77.8082 48.0592V47.8576C77.8082 47.3719 78.2014 46.9787 78.6871 46.9787C79.1723 46.9787 79.566 47.3719 79.566 47.8576V48.0604C80.6119 48.2848 81.3989 49.2164 81.3989 50.3285C81.3989 50.8137 81.0051 51.2074 80.52 51.2074C80.0342 51.2074 79.641 50.8137 79.641 50.3285C79.641 50.0186 79.3885 49.766 79.0785 49.766H78.2905C77.9805 49.766 77.728 50.0186 77.728 50.3285C77.728 50.5061 77.8129 50.6748 77.9559 50.7803L78.6871 51.3217L80.4637 52.6365C81.0473 53.0684 81.3989 53.7592 81.4035 54.4858V54.494C81.4076 55.1139 81.1703 55.6987 80.7344 56.1399C80.411 56.4674 80.0067 56.6871 79.566 56.7797V56.9854C79.566 57.4711 79.1723 57.8643 78.6871 57.8643C78.2014 57.8643 77.8082 57.4711 77.8082 56.9854V56.7827C77.3793 56.6912 76.985 56.4803 76.6662 56.1651C76.225 55.7297 75.9801 55.1485 75.9766 54.5285C75.9736 54.0434 76.3645 53.6473 76.8496 53.6444H76.8555C77.3383 53.6444 77.7315 54.0346 77.7344 54.518C77.7356 54.8213 77.9796 55.077 78.2998 55.077C78.7855 55.0741 78.6046 55.0751 79.0867 55.0723C79.3987 55.0698 79.6481 54.8167 79.6457 54.5057V54.4975C79.6446 54.3217 79.5596 54.1541 79.4178 54.0492L78.6871 53.5084L76.91 52.1936C76.3217 51.7576 75.9701 51.0604 75.9701 50.3285C75.9701 49.2141 76.7594 48.2818 77.8082 48.0592Z" fill="#396AFF"/>
<path d="M66.6625 64.066C66.4372 63.6754 65.9368 63.5395 65.5438 63.7662L61.4095 66.1528C61.018 66.3793 60.8837 66.88 61.1097 67.272L65.3352 74.5905C65.5614 74.9819 66.0617 75.1163 66.4539 74.8903L70.5882 72.5032C70.9802 72.2771 71.114 71.7764 70.8879 71.3844L66.6625 64.066Z" fill="#396AFF"/>
<path d="M90.3515 62.6051C89.9536 62.0525 89.1837 61.9277 88.6318 62.3256C86.9571 63.532 83.7415 65.8488 83.486 66.0334C83.3683 66.1336 83.2446 66.2244 83.1157 66.3047C82.6101 66.6229 82.0235 66.7928 81.4112 66.7928H77.2012C76.7161 66.7928 76.3223 66.3996 76.3223 65.9139C76.3223 65.4276 76.7167 65.035 77.2012 65.035H81.7036C82.3651 65.035 82.8948 64.4842 82.8673 63.8215C82.8415 63.1928 82.3048 62.7053 81.6755 62.7053H78.2483C78.0163 62.4598 77.762 62.2348 77.4895 62.0338C76.5526 61.343 75.3948 60.9346 74.1415 60.9346C71.9131 60.9346 69.696 62.3385 68.7766 64.2123L72.3719 70.4391H79.1161C80.4403 70.4391 81.7446 70.1004 82.8925 69.4401C83.2903 69.2115 83.7163 68.9367 84.178 68.6051C86.1128 67.2153 90.0685 64.3277 90.0714 64.326C90.6245 63.9287 90.7499 63.1576 90.3515 62.6051Z" fill="#396AFF"/>
</svg>
