<svg width="350" height="120" viewBox="0 0 350 120" fill="none" xmlns="http://www.w3.org/2000/svg">
<rect width="350" height="120" rx="25" fill="white"/>
<path d="M168.611 78.6705H170.841V74.8707H174.641V72.6406H170.841V68.8409H168.611V72.6406H164.811V74.8707H168.611V78.6705ZM182.806 81.1989C185.882 81.1989 188.027 79.1108 188.027 76.2202C188.027 73.4219 186.081 71.4048 183.439 71.4048C182.26 71.4048 181.216 71.8736 180.676 72.5128H180.591L181.01 68.6562H187.267V66.4545H178.829L178.069 73.9545L180.449 74.3452C180.939 73.8054 181.862 73.4432 182.735 73.4503C184.333 73.4574 185.484 74.6364 185.477 76.2841C185.484 77.9105 184.362 79.0682 182.806 79.0682C181.493 79.0682 180.434 78.2372 180.342 77.044H177.785C177.856 79.4588 179.966 81.1989 182.806 81.1989ZM191.53 81.1562C192.368 81.1562 193.085 80.4602 193.092 79.5938C193.085 78.7415 192.368 78.0455 191.53 78.0455C190.663 78.0455 189.96 78.7415 189.967 79.5938C189.96 80.4602 190.663 81.1562 191.53 81.1562ZM200.342 81.1989C203.488 81.1989 205.74 79.4659 205.747 77.1009C205.74 75.2827 204.397 73.7628 202.707 73.4787V73.3793C204.177 73.0526 205.2 71.7315 205.207 70.1548C205.2 67.9176 203.14 66.2557 200.342 66.2557C197.522 66.2557 195.463 67.9105 195.47 70.1548C195.463 71.7315 196.471 73.0526 197.97 73.3793V73.4787C196.251 73.7628 194.923 75.2827 194.93 77.1009C194.923 79.4659 197.167 81.1989 200.342 81.1989ZM200.342 79.1676C198.694 79.1676 197.629 78.2585 197.643 76.9162C197.629 75.5241 198.772 74.5369 200.342 74.5369C201.89 74.5369 203.027 75.5312 203.041 76.9162C203.027 78.2585 201.968 79.1676 200.342 79.1676ZM200.342 72.5412C198.993 72.5412 198.027 71.6676 198.041 70.4034C198.027 69.1534 198.964 68.3153 200.342 68.3153C201.699 68.3153 202.629 69.1534 202.643 70.4034C202.629 71.6747 201.67 72.5412 200.342 72.5412ZM213.458 81.277C216.967 81.2841 219.062 78.5142 219.062 73.7415C219.062 68.9972 216.952 66.2557 213.458 66.2557C209.964 66.2557 207.862 68.9901 207.854 73.7415C207.854 78.5071 209.95 81.277 213.458 81.277ZM213.458 79.054C211.647 79.054 210.511 77.2358 210.518 73.7415C210.525 70.2756 211.654 68.4503 213.458 68.4503C215.269 68.4503 216.398 70.2756 216.406 73.7415C216.406 77.2358 215.276 79.054 213.458 79.054ZM229.199 78.2727C229.206 79.9631 230.278 81.4048 232.274 81.4048C234.262 81.4048 235.356 79.9631 235.349 78.2727V77.5057C235.356 75.8011 234.291 74.3736 232.274 74.3736C230.306 74.3736 229.206 75.8153 229.199 77.5057V78.2727ZM221.805 69.9489C221.812 71.6392 222.885 73.0668 224.887 73.0668C226.869 73.0668 227.963 71.6534 227.956 69.9489V69.1818C227.963 67.4773 226.897 66.0497 224.887 66.0497C222.927 66.0497 221.812 67.4773 221.805 69.1818V69.9489ZM222.444 81H224.227L234.227 66.4545H232.444L222.444 81ZM231.052 77.5057C231.059 76.7528 231.379 75.9929 232.274 75.9929C233.211 75.9929 233.488 76.7528 233.481 77.5057V78.2727C233.488 79.0256 233.183 79.7713 232.274 79.7713C231.365 79.7713 231.059 79.0185 231.052 78.2727V77.5057ZM223.673 69.1818C223.68 68.4361 223.985 67.669 224.887 67.669C225.825 67.669 226.095 68.429 226.088 69.1818V69.9489C226.095 70.7017 225.797 71.4474 224.887 71.4474C223.978 71.4474 223.68 70.7017 223.673 69.9489V69.1818Z" fill="#232323"/>
<path d="M164.409 50H165.818V45.4545H168.364C168.466 45.4545 168.562 45.4545 168.659 45.4489L171.114 50H172.75L170.119 45.1932C171.602 44.6875 172.295 43.4773 172.295 41.9318C172.295 39.875 171.068 38.3636 168.341 38.3636H164.409V50ZM165.818 44.1818V39.6136H168.295C170.182 39.6136 170.909 40.5341 170.909 41.9318C170.909 43.3295 170.182 44.1818 168.318 44.1818H165.818ZM177.03 50.2045C178.553 50.2045 179.348 49.3864 179.621 48.8182H179.689V50H181.03V44.25C181.03 41.4773 178.916 41.1591 177.803 41.1591C176.484 41.1591 174.984 41.6136 174.303 43.2045L175.575 43.6591C175.871 43.0227 176.57 42.3409 177.848 42.3409C179.081 42.3409 179.689 42.9943 179.689 44.1136V44.1591C179.689 44.8068 179.03 44.75 177.439 44.9545C175.82 45.1648 174.053 45.5227 174.053 47.5227C174.053 49.2273 175.371 50.2045 177.03 50.2045ZM177.234 49C176.166 49 175.393 48.5227 175.393 47.5909C175.393 46.5682 176.325 46.25 177.371 46.1136C177.939 46.0455 179.462 45.8864 179.689 45.6136V46.8409C179.689 47.9318 178.825 49 177.234 49ZM187.273 41.2727H185.409V39.1818H184.068V41.2727H182.75V42.4091H184.068V47.8636C184.068 49.3864 185.295 50.1136 186.432 50.1136C186.932 50.1136 187.25 50.0227 187.432 49.9545L187.159 48.75C187.045 48.7727 186.864 48.8182 186.568 48.8182C185.977 48.8182 185.409 48.6364 185.409 47.5V42.4091H187.273V41.2727ZM192.855 50.1818C194.628 50.1818 195.923 49.2955 196.332 47.9773L195.037 47.6136C194.696 48.5227 193.906 48.9773 192.855 48.9773C191.281 48.9773 190.196 47.9602 190.134 46.0909H196.469V45.5227C196.469 42.2727 194.537 41.1591 192.719 41.1591C190.355 41.1591 188.787 43.0227 188.787 45.7045C188.787 48.3864 190.332 50.1818 192.855 50.1818ZM190.134 44.9318C190.224 43.5739 191.185 42.3636 192.719 42.3636C194.173 42.3636 195.105 43.4545 195.105 44.9318H190.134ZM206.554 50.1818C208.918 50.1818 210.509 48.3864 210.509 45.6818C210.509 42.9545 208.918 41.1591 206.554 41.1591C204.19 41.1591 202.599 42.9545 202.599 45.6818C202.599 48.3864 204.19 50.1818 206.554 50.1818ZM206.554 48.9773C204.759 48.9773 203.94 47.4318 203.94 45.6818C203.94 43.9318 204.759 42.3636 206.554 42.3636C208.349 42.3636 209.168 43.9318 209.168 45.6818C209.168 47.4318 208.349 48.9773 206.554 48.9773ZM216.442 41.2727H214.487V40.3864C214.487 39.5227 214.851 39.0682 215.737 39.0682C216.124 39.0682 216.351 39.1591 216.487 39.2045L216.874 38.0455C216.669 37.9545 216.26 37.8182 215.601 37.8182C214.351 37.8182 213.146 38.5682 213.146 40.0682V41.2727H211.737V42.4091H213.146V50H214.487V42.4091H216.442V41.2727ZM223.003 50H224.412V45.4545H226.957C227.06 45.4545 227.156 45.4545 227.253 45.4489L229.707 50H231.344L228.713 45.1932C230.196 44.6875 230.889 43.4773 230.889 41.9318C230.889 39.875 229.662 38.3636 226.935 38.3636H223.003V50ZM224.412 44.1818V39.6136H226.889C228.776 39.6136 229.503 40.5341 229.503 41.9318C229.503 43.3295 228.776 44.1818 226.912 44.1818H224.412ZM236.621 50.1818C238.393 50.1818 239.689 49.2955 240.098 47.9773L238.803 47.6136C238.462 48.5227 237.672 48.9773 236.621 48.9773C235.047 48.9773 233.962 47.9602 233.899 46.0909H240.234V45.5227C240.234 42.2727 238.303 41.1591 236.484 41.1591C234.121 41.1591 232.553 43.0227 232.553 45.7045C232.553 48.3864 234.098 50.1818 236.621 50.1818ZM233.899 44.9318C233.99 43.5739 234.95 42.3636 236.484 42.3636C237.939 42.3636 238.871 43.4545 238.871 44.9318H233.899ZM246.07 41.2727H244.206V39.1818H242.865V41.2727H241.547V42.4091H242.865V47.8636C242.865 49.3864 244.092 50.1136 245.229 50.1136C245.729 50.1136 246.047 50.0227 246.229 49.9545L245.956 48.75C245.842 48.7727 245.661 48.8182 245.365 48.8182C244.774 48.8182 244.206 48.6364 244.206 47.5V42.4091H246.07V41.2727ZM253.587 46.4318C253.587 48.0682 252.337 48.8182 251.337 48.8182C250.223 48.8182 249.428 48 249.428 46.7273V41.2727H248.087V46.8182C248.087 49.0455 249.268 50.1136 250.905 50.1136C252.223 50.1136 253.087 49.4091 253.496 48.5227H253.587V50H254.928V41.2727H253.587V46.4318ZM257.384 50H258.724V44.4773C258.724 43.2955 259.656 42.4318 260.929 42.4318C261.287 42.4318 261.656 42.5 261.747 42.5227V41.1591C261.594 41.1477 261.241 41.1364 261.043 41.1364C259.997 41.1364 259.088 41.7273 258.77 42.5909H258.679V41.2727H257.384V50ZM264.678 44.75C264.678 43.2273 265.621 42.3636 266.905 42.3636C268.149 42.3636 268.905 43.1761 268.905 44.5455V50H270.246V44.4545C270.246 42.2273 269.058 41.1591 267.291 41.1591C265.973 41.1591 265.155 41.75 264.746 42.6364H264.632V41.2727H263.337V50H264.678V44.75Z" fill="#718EBF"/>
<circle cx="113" cy="60" r="35" fill="#E7EDFF"/>
<g clip-path="url(#clip0_112_266)">
<path d="M127.726 50.8999L122.101 45.2751C121.833 45.0069 121.43 44.9263 121.079 45.0726C120.729 45.2188 120.5 45.5582 120.5 45.9369V48.7493H108.313C102.617 48.7493 98.0005 53.3654 98.0005 59.0615C98.0005 59.579 98.4205 59.999 98.938 59.999H102.688C103.205 59.999 103.625 59.579 103.625 59.0615C103.625 56.4722 105.723 54.3742 108.313 54.3742H120.5V57.1866C120.5 57.5653 120.729 57.9084 121.079 58.0528C121.43 58.199 121.833 58.1184 122.101 57.8503L127.726 52.2255C128.091 51.8599 128.091 51.2655 127.726 50.8999Z" fill="#396AFF"/>
<path d="M127.062 59.9991H123.312C122.795 59.9991 122.375 60.4191 122.375 60.9366C122.375 63.5259 120.277 65.624 117.687 65.624H105.5V62.8116C105.5 62.4328 105.271 62.0897 104.921 61.9453C104.57 61.801 104.169 61.8816 103.899 62.1497L98.2742 67.7745C97.9086 68.1402 97.9086 68.7345 98.2742 69.1001L103.899 74.725C104.167 74.9931 104.57 75.0737 104.921 74.9275C105.271 74.7812 105.5 74.44 105.5 74.0612V71.2488H117.687C123.383 71.2488 128 66.6327 128 60.9366C128 60.4191 127.58 59.9991 127.062 59.9991Z" fill="#396AFF"/>
</g>
<defs>
<clipPath id="clip0_112_266">
<rect width="30" height="30" fill="white" transform="translate(98 45)"/>
</clipPath>
</defs>
</svg>
