<svg width="350" height="120" viewBox="0 0 350 120" fill="none" xmlns="http://www.w3.org/2000/svg">
<rect width="350" height="120" rx="25" fill="white"/>
<path d="M138.76 82.8182H140.266L140.273 81.1918C143.32 80.9716 145.067 79.2955 145.074 76.9162C145.067 74.3949 142.986 73.2443 140.798 72.7259L140.33 72.6051L140.358 68.5497C141.494 68.7486 142.226 69.4304 142.339 70.4531H144.875C144.832 68.1946 143.057 66.5469 140.372 66.2912L140.379 64.6364H138.874L138.866 66.2912C136.203 66.5611 134.286 68.1946 134.293 70.5455C134.293 72.6335 135.777 73.8338 138.17 74.4517L138.81 74.6151L138.781 78.9119C137.51 78.7131 136.594 77.9886 136.501 76.7031H133.909C134.009 79.3665 135.841 80.9503 138.767 81.1918L138.76 82.8182ZM140.287 78.9119L140.315 75.0128C141.608 75.3892 142.432 75.8864 142.439 76.8949C142.432 77.946 141.587 78.6989 140.287 78.9119ZM138.824 72.2216C137.844 71.9091 136.949 71.3906 136.963 70.3821C136.97 69.4659 137.659 68.7557 138.852 68.5497L138.824 72.2216ZM153.197 66.4545H150.69L147.075 68.777V71.1918L150.477 69.0185H150.562V81H153.197V66.4545ZM161.947 81.1989C165.022 81.1989 167.167 79.1108 167.167 76.2202C167.167 73.4219 165.221 71.4048 162.579 71.4048C161.4 71.4048 160.356 71.8736 159.816 72.5128H159.731L160.15 68.6562H166.407V66.4545H157.97L157.21 73.9545L159.589 74.3452C160.079 73.8054 161.002 73.4432 161.876 73.4503C163.474 73.4574 164.625 74.6364 164.618 76.2841C164.625 77.9105 163.502 79.0682 161.947 79.0682C160.633 79.0682 159.575 78.2372 159.483 77.044H156.926C156.997 79.4588 159.106 81.1989 161.947 81.1989ZM174.923 81.277C178.431 81.2841 180.527 78.5142 180.527 73.7415C180.527 68.9972 178.417 66.2557 174.923 66.2557C171.429 66.2557 169.326 68.9901 169.319 73.7415C169.319 78.5071 171.414 81.277 174.923 81.277ZM174.923 79.054C173.112 79.054 171.975 77.2358 171.983 73.7415C171.99 70.2756 173.119 68.4503 174.923 68.4503C176.734 68.4503 177.863 70.2756 177.87 73.7415C177.87 77.2358 176.741 79.054 174.923 79.054ZM185.367 79.0114H183.094L183.044 79.8068C182.924 81.7315 182.419 83.6918 182.213 84.5511H183.946C184.287 83.6562 185.076 81.5824 185.275 79.7926L185.367 79.0114ZM193.028 81.277C196.537 81.2841 198.632 78.5142 198.632 73.7415C198.632 68.9972 196.523 66.2557 193.028 66.2557C189.534 66.2557 187.432 68.9901 187.425 73.7415C187.425 78.5071 189.52 81.277 193.028 81.277ZM193.028 79.054C191.217 79.054 190.081 77.2358 190.088 73.7415C190.095 70.2756 191.224 68.4503 193.028 68.4503C194.839 68.4503 195.969 70.2756 195.976 73.7415C195.976 77.2358 194.847 79.054 193.028 79.054ZM206.368 81.277C209.877 81.2841 211.972 78.5142 211.972 73.7415C211.972 68.9972 209.863 66.2557 206.368 66.2557C202.874 66.2557 200.772 68.9901 200.765 73.7415C200.765 78.5071 202.86 81.277 206.368 81.277ZM206.368 79.054C204.557 79.054 203.421 77.2358 203.428 73.7415C203.435 70.2756 204.564 68.4503 206.368 68.4503C208.179 68.4503 209.309 70.2756 209.316 73.7415C209.316 77.2358 208.186 79.054 206.368 79.054ZM219.708 81.277C223.217 81.2841 225.312 78.5142 225.312 73.7415C225.312 68.9972 223.202 66.2557 219.708 66.2557C216.214 66.2557 214.112 68.9901 214.104 73.7415C214.104 78.5071 216.2 81.277 219.708 81.277ZM219.708 79.054C217.897 79.054 216.761 77.2358 216.768 73.7415C216.775 70.2756 217.904 68.4503 219.708 68.4503C221.519 68.4503 222.648 70.2756 222.656 73.7415C222.656 77.2358 221.526 79.054 219.708 79.054Z" fill="#232323"/>
<path d="M133.773 39.6136H137.432V50H138.841V39.6136H142.5V38.3636H133.773V39.6136ZM146.773 50.1818C149.136 50.1818 150.727 48.3864 150.727 45.6818C150.727 42.9545 149.136 41.1591 146.773 41.1591C144.409 41.1591 142.818 42.9545 142.818 45.6818C142.818 48.3864 144.409 50.1818 146.773 50.1818ZM146.773 48.9773C144.977 48.9773 144.159 47.4318 144.159 45.6818C144.159 43.9318 144.977 42.3636 146.773 42.3636C148.568 42.3636 149.386 43.9318 149.386 45.6818C149.386 47.4318 148.568 48.9773 146.773 48.9773ZM156.57 41.2727H154.706V39.1818H153.365V41.2727H152.047V42.4091H153.365V47.8636C153.365 49.3864 154.592 50.1136 155.729 50.1136C156.229 50.1136 156.547 50.0227 156.729 49.9545L156.456 48.75C156.342 48.7727 156.161 48.8182 155.865 48.8182C155.274 48.8182 154.706 48.6364 154.706 47.5V42.4091H156.57V41.2727ZM161.155 50.2045C162.678 50.2045 163.473 49.3864 163.746 48.8182H163.814V50H165.155V44.25C165.155 41.4773 163.041 41.1591 161.928 41.1591C160.609 41.1591 159.109 41.6136 158.428 43.2045L159.7 43.6591C159.996 43.0227 160.695 42.3409 161.973 42.3409C163.206 42.3409 163.814 42.9943 163.814 44.1136V44.1591C163.814 44.8068 163.155 44.75 161.564 44.9545C159.945 45.1648 158.178 45.5227 158.178 47.5227C158.178 49.2273 159.496 50.2045 161.155 50.2045ZM161.359 49C160.291 49 159.518 48.5227 159.518 47.5909C159.518 46.5682 160.45 46.25 161.496 46.1136C162.064 46.0455 163.587 45.8864 163.814 45.6136V46.8409C163.814 47.9318 162.95 49 161.359 49ZM168.943 38.3636H167.602V50H168.943V38.3636ZM177.49 38.3636H176.081V50H177.49V38.3636ZM181.474 44.75C181.474 43.2273 182.418 42.3636 183.702 42.3636C184.946 42.3636 185.702 43.1761 185.702 44.5455V50H187.043V44.4545C187.043 42.2273 185.855 41.1591 184.088 41.1591C182.77 41.1591 181.952 41.75 181.543 42.6364H181.429V41.2727H180.134V50H181.474V44.75ZM196.317 41.2727H194.862L192.453 48.2273H192.362L189.953 41.2727H188.499L191.726 50H193.089L196.317 41.2727ZM201.433 50.1818C203.206 50.1818 204.501 49.2955 204.911 47.9773L203.615 47.6136C203.274 48.5227 202.484 48.9773 201.433 48.9773C199.859 48.9773 198.774 47.9602 198.712 46.0909H205.047V45.5227C205.047 42.2727 203.115 41.1591 201.297 41.1591C198.933 41.1591 197.365 43.0227 197.365 45.7045C197.365 48.3864 198.911 50.1818 201.433 50.1818ZM198.712 44.9318C198.803 43.5739 199.763 42.3636 201.297 42.3636C202.751 42.3636 203.683 43.4545 203.683 44.9318H198.712ZM213.268 43.2273C212.848 41.9886 211.905 41.1591 210.178 41.1591C208.337 41.1591 206.973 42.2045 206.973 43.6818C206.973 44.8864 207.689 45.6932 209.291 46.0682L210.746 46.4091C211.626 46.6136 212.041 47.0341 212.041 47.6364C212.041 48.3864 211.246 49 209.996 49C208.899 49 208.212 48.5284 207.973 47.5909L206.7 47.9091C207.013 49.392 208.234 50.1818 210.018 50.1818C212.047 50.1818 213.428 49.0739 213.428 47.5682C213.428 46.3523 212.666 45.5852 211.109 45.2045L209.814 44.8864C208.78 44.6307 208.314 44.2841 208.314 43.6136C208.314 42.8636 209.109 42.3182 210.178 42.3182C211.348 42.3182 211.831 42.9659 212.064 43.5682L213.268 43.2273ZM219.241 41.2727H217.378V39.1818H216.037V41.2727H214.719V42.4091H216.037V47.8636C216.037 49.3864 217.264 50.1136 218.401 50.1136C218.901 50.1136 219.219 50.0227 219.401 49.9545L219.128 48.75C219.014 48.7727 218.832 48.8182 218.537 48.8182C217.946 48.8182 217.378 48.6364 217.378 47.5V42.4091H219.241V41.2727ZM224.824 50.1818C226.597 50.1818 227.892 49.2955 228.301 47.9773L227.006 47.6136C226.665 48.5227 225.875 48.9773 224.824 48.9773C223.25 48.9773 222.165 47.9602 222.102 46.0909H228.438V45.5227C228.438 42.2727 226.506 41.1591 224.688 41.1591C222.324 41.1591 220.756 43.0227 220.756 45.7045C220.756 48.3864 222.301 50.1818 224.824 50.1818ZM222.102 44.9318C222.193 43.5739 223.153 42.3636 224.688 42.3636C226.142 42.3636 227.074 43.4545 227.074 44.9318H222.102ZM233.773 50.1818C235.455 50.1818 236.023 49.1364 236.318 48.6591H236.477V50H237.773V38.3636H236.432V42.6591H236.318C236.023 42.2045 235.5 41.1591 233.795 41.1591C231.591 41.1591 230.068 42.9091 230.068 45.6591C230.068 48.4318 231.591 50.1818 233.773 50.1818ZM233.955 48.9773C232.273 48.9773 231.409 47.5 231.409 45.6364C231.409 43.7955 232.25 42.3636 233.955 42.3636C235.591 42.3636 236.455 43.6818 236.455 45.6364C236.455 47.6136 235.568 48.9773 233.955 48.9773ZM245.574 50L246.744 46.7045H251.449L252.619 50H254.097L249.824 38.3636H248.369L244.097 50H245.574ZM247.188 45.4545L249.051 40.2045H249.142L251.006 45.4545H247.188ZM255.727 50H257.068V44.5455C257.068 43.267 258 42.3636 259.045 42.3636C260.062 42.3636 260.773 43.0284 260.773 44.0227V50H262.136V44.3182C262.136 43.1932 262.841 42.3636 264.068 42.3636C265.023 42.3636 265.841 42.8693 265.841 44.1591V50H267.182V44.1591C267.182 42.108 266.08 41.1591 264.523 41.1591C263.273 41.1591 262.358 41.733 261.909 42.6364H261.818C261.386 41.7045 260.625 41.1591 259.477 41.1591C258.341 41.1591 257.5 41.7045 257.136 42.6364H257.023V41.2727H255.727V50ZM273.179 50.1818C275.543 50.1818 277.134 48.3864 277.134 45.6818C277.134 42.9545 275.543 41.1591 273.179 41.1591C270.815 41.1591 269.224 42.9545 269.224 45.6818C269.224 48.3864 270.815 50.1818 273.179 50.1818ZM273.179 48.9773C271.384 48.9773 270.565 47.4318 270.565 45.6818C270.565 43.9318 271.384 42.3636 273.179 42.3636C274.974 42.3636 275.793 43.9318 275.793 45.6818C275.793 47.4318 274.974 48.9773 273.179 48.9773ZM284.68 46.4318C284.68 48.0682 283.43 48.8182 282.43 48.8182C281.317 48.8182 280.521 48 280.521 46.7273V41.2727H279.18V46.8182C279.18 49.0455 280.362 50.1136 281.999 50.1136C283.317 50.1136 284.18 49.4091 284.589 48.5227H284.68V50H286.021V41.2727H284.68V46.4318ZM289.818 44.75C289.818 43.2273 290.761 42.3636 292.045 42.3636C293.29 42.3636 294.045 43.1761 294.045 44.5455V50H295.386V44.4545C295.386 42.2273 294.199 41.1591 292.432 41.1591C291.114 41.1591 290.295 41.75 289.886 42.6364H289.773V41.2727H288.477V50H289.818V44.75ZM301.632 41.2727H299.768V39.1818H298.428V41.2727H297.109V42.4091H298.428V47.8636C298.428 49.3864 299.655 50.1136 300.791 50.1136C301.291 50.1136 301.609 50.0227 301.791 49.9545L301.518 48.75C301.405 48.7727 301.223 48.8182 300.928 48.8182C300.337 48.8182 299.768 48.6364 299.768 47.5V42.4091H301.632V41.2727Z" fill="#718EBF"/>
<circle cx="83" cy="60" r="35" fill="#DCFAF8"/>
<path d="M87.6282 52.6615H90.6801L90.6276 50.8025H88.0477L90.4724 45.7913L87.7292 45.5617L85.3198 47.4086L86.1232 45.3201L83.3114 45L82.3892 47.6099L80.8737 45.5892L76.7048 45.4445L79.4633 50.8033L76.9732 50.7233V52.6607H79.3728C74.2551 55.6561 70.5679 63.4857 70.5679 67.7153C70.5679 73.0175 76.3581 76 83.4997 76C90.6413 76 96.4315 73.0175 96.4315 67.7153C96.4323 63.4857 92.7459 55.6569 87.6282 52.6615ZM84.5811 70.2589V72.0945H82.8167V70.385C81.6108 70.3325 80.4405 70.0059 79.7567 69.6115L80.2966 67.5068C81.0523 67.9214 82.1152 68.2981 83.2847 68.2981C84.3104 68.2981 85.0127 67.902 85.0127 67.1835C85.0127 66.4973 84.4372 66.0649 83.1053 65.6163C81.1784 64.9689 79.865 64.0677 79.865 62.3234C79.865 60.7392 80.9812 59.4961 82.9073 59.1195V57.4092H84.6716V58.9934C85.8767 59.0484 86.6882 59.2981 87.2814 59.5867L86.7593 61.6211C86.2913 61.4238 85.4629 61.0084 84.1673 61.0084C82.997 61.0084 82.6187 61.5119 82.6187 62.0155C82.6187 62.6104 83.2491 62.9878 84.7791 63.5641C86.9202 64.3223 87.785 65.31 87.785 66.9313C87.7858 68.5309 86.651 69.8993 84.5811 70.2589Z" fill="#16DBCC"/>
</svg>

