<svg width="255" height="120" viewBox="0 0 255 120" fill="none" xmlns="http://www.w3.org/2000/svg">
<rect width="255" height="120" rx="25" fill="white"/>
<path d="M113.773 42C113.341 39.6136 111.432 38.2045 109.091 38.2045C106.114 38.2045 103.955 40.5 103.955 44.1818C103.955 47.8636 106.114 50.1591 109.091 50.1591C111.432 50.1591 113.341 48.75 113.773 46.3636H112.364C112.023 47.9773 110.636 48.8409 109.091 48.8409C106.977 48.8409 105.318 47.2045 105.318 44.1818C105.318 41.1591 106.977 39.5227 109.091 39.5227C110.636 39.5227 112.023 40.3864 112.364 42H113.773ZM121.368 46.4318C121.368 48.0682 120.118 48.8182 119.118 48.8182C118.004 48.8182 117.209 48 117.209 46.7273V41.2727H115.868V46.8182C115.868 49.0455 117.05 50.1136 118.686 50.1136C120.004 50.1136 120.868 49.4091 121.277 48.5227H121.368V50H122.709V41.2727H121.368V46.4318ZM131.347 43.2273C130.926 41.9886 129.983 41.1591 128.256 41.1591C126.415 41.1591 125.051 42.2045 125.051 43.6818C125.051 44.8864 125.767 45.6932 127.369 46.0682L128.824 46.4091C129.705 46.6136 130.119 47.0341 130.119 47.6364C130.119 48.3864 129.324 49 128.074 49C126.977 49 126.29 48.5284 126.051 47.5909L124.778 47.9091C125.091 49.392 126.312 50.1818 128.097 50.1818C130.125 50.1818 131.506 49.0739 131.506 47.5682C131.506 46.3523 130.744 45.5852 129.188 45.2045L127.892 44.8864C126.858 44.6307 126.392 44.2841 126.392 43.6136C126.392 42.8636 127.188 42.3182 128.256 42.3182C129.426 42.3182 129.909 42.9659 130.142 43.5682L131.347 43.2273ZM137.32 41.2727H135.456V39.1818H134.115V41.2727H132.797V42.4091H134.115V47.8636C134.115 49.3864 135.342 50.1136 136.479 50.1136C136.979 50.1136 137.297 50.0227 137.479 49.9545L137.206 48.75C137.092 48.7727 136.911 48.8182 136.615 48.8182C136.024 48.8182 135.456 48.6364 135.456 47.5V42.4091H137.32V41.2727ZM142.788 50.1818C145.152 50.1818 146.743 48.3864 146.743 45.6818C146.743 42.9545 145.152 41.1591 142.788 41.1591C140.425 41.1591 138.834 42.9545 138.834 45.6818C138.834 48.3864 140.425 50.1818 142.788 50.1818ZM142.788 48.9773C140.993 48.9773 140.175 47.4318 140.175 45.6818C140.175 43.9318 140.993 42.3636 142.788 42.3636C144.584 42.3636 145.402 43.9318 145.402 45.6818C145.402 47.4318 144.584 48.9773 142.788 48.9773ZM148.79 50H150.131V44.5455C150.131 43.267 151.062 42.3636 152.108 42.3636C153.125 42.3636 153.835 43.0284 153.835 44.0227V50H155.199V44.3182C155.199 43.1932 155.903 42.3636 157.131 42.3636C158.085 42.3636 158.903 42.8693 158.903 44.1591V50H160.244V44.1591C160.244 42.108 159.142 41.1591 157.585 41.1591C156.335 41.1591 155.42 41.733 154.972 42.6364H154.881C154.449 41.7045 153.688 41.1591 152.54 41.1591C151.403 41.1591 150.562 41.7045 150.199 42.6364H150.085V41.2727H148.79V50ZM167.378 50H174.196V48.75H168.787V38.3636H167.378V50ZM179.741 50.1818C182.105 50.1818 183.696 48.3864 183.696 45.6818C183.696 42.9545 182.105 41.1591 179.741 41.1591C177.378 41.1591 175.787 42.9545 175.787 45.6818C175.787 48.3864 177.378 50.1818 179.741 50.1818ZM179.741 48.9773C177.946 48.9773 177.128 47.4318 177.128 45.6818C177.128 43.9318 177.946 42.3636 179.741 42.3636C181.537 42.3636 182.355 43.9318 182.355 45.6818C182.355 47.4318 181.537 48.9773 179.741 48.9773ZM188.311 50.2045C189.834 50.2045 190.629 49.3864 190.902 48.8182H190.97V50H192.311V44.25C192.311 41.4773 190.197 41.1591 189.084 41.1591C187.766 41.1591 186.266 41.6136 185.584 43.2045L186.857 43.6591C187.152 43.0227 187.851 42.3409 189.129 42.3409C190.362 42.3409 190.97 42.9943 190.97 44.1136V44.1591C190.97 44.8068 190.311 44.75 188.72 44.9545C187.101 45.1648 185.334 45.5227 185.334 47.5227C185.334 49.2273 186.652 50.2045 188.311 50.2045ZM188.516 49C187.447 49 186.675 48.5227 186.675 47.5909C186.675 46.5682 187.607 46.25 188.652 46.1136C189.22 46.0455 190.743 45.8864 190.97 45.6136V46.8409C190.97 47.9318 190.107 49 188.516 49ZM196.099 44.75C196.099 43.2273 197.043 42.3636 198.327 42.3636C199.571 42.3636 200.327 43.1761 200.327 44.5455V50H201.668V44.4545C201.668 42.2273 200.48 41.1591 198.713 41.1591C197.395 41.1591 196.577 41.75 196.168 42.6364H196.054V41.2727H194.759V50H196.099V44.75ZM210.3 43.2273C209.879 41.9886 208.936 41.1591 207.209 41.1591C205.368 41.1591 204.004 42.2045 204.004 43.6818C204.004 44.8864 204.72 45.6932 206.322 46.0682L207.777 46.4091C208.658 46.6136 209.072 47.0341 209.072 47.6364C209.072 48.3864 208.277 49 207.027 49C205.93 49 205.243 48.5284 205.004 47.5909L203.732 47.9091C204.044 49.392 205.266 50.1818 207.05 50.1818C209.078 50.1818 210.459 49.0739 210.459 47.5682C210.459 46.3523 209.697 45.5852 208.141 45.2045L206.845 44.8864C205.811 44.6307 205.345 44.2841 205.345 43.6136C205.345 42.8636 206.141 42.3182 207.209 42.3182C208.379 42.3182 208.862 42.9659 209.095 43.5682L210.3 43.2273Z" fill="#718EBF"/>
<path d="M115.496 71.326C115.094 68.4176 112.857 66.7301 109.955 66.7301C106.535 66.7301 103.959 69.223 103.959 73.4545C103.959 77.6797 106.503 80.179 109.955 80.179C113.067 80.179 115.132 78.1655 115.496 75.6662L113.106 75.6534C112.805 77.1875 111.553 78.0504 109.987 78.0504C107.864 78.0504 106.343 76.4588 106.343 73.4545C106.343 70.5014 107.852 68.8587 109.993 68.8587C111.585 68.8587 112.831 69.7599 113.106 71.326H115.496ZM119.88 74.2472C119.88 72.8281 120.762 72.0099 122.002 72.0099C123.216 72.0099 123.932 72.7834 123.932 74.1065V80H126.246V73.7486C126.246 71.3771 124.904 70.054 122.865 70.054C121.356 70.054 120.398 70.7379 119.944 71.8501H119.829V66.9091H117.566V80H119.88V74.2472ZM132.888 80.1918C135.764 80.1918 137.592 78.1655 137.592 75.1293C137.592 72.0866 135.764 70.054 132.888 70.054C130.011 70.054 128.183 72.0866 128.183 75.1293C128.183 78.1655 130.011 80.1918 132.888 80.1918ZM132.9 78.3381C131.309 78.3381 130.529 76.919 130.529 75.1229C130.529 73.3267 131.309 71.8885 132.9 71.8885C134.466 71.8885 135.246 73.3267 135.246 75.1229C135.246 76.919 134.466 78.3381 132.9 78.3381ZM143.839 80.1918C146.715 80.1918 148.543 78.1655 148.543 75.1293C148.543 72.0866 146.715 70.054 143.839 70.054C140.962 70.054 139.134 72.0866 139.134 75.1293C139.134 78.1655 140.962 80.1918 143.839 80.1918ZM143.852 78.3381C142.26 78.3381 141.48 76.919 141.48 75.1229C141.48 73.3267 142.26 71.8885 143.852 71.8885C145.418 71.8885 146.197 73.3267 146.197 75.1229C146.197 76.919 145.418 78.3381 143.852 78.3381ZM158.267 72.777C157.948 71.1151 156.618 70.054 154.317 70.054C151.952 70.054 150.341 71.2173 150.347 73.0327C150.341 74.4645 151.223 75.4105 153.109 75.8004L154.784 76.152C155.685 76.3501 156.107 76.7145 156.107 77.2706C156.107 77.9418 155.378 78.4467 154.279 78.4467C153.218 78.4467 152.527 77.9865 152.329 77.1044L150.073 77.3217C150.36 79.1243 151.875 80.1918 154.285 80.1918C156.74 80.1918 158.472 78.9197 158.478 77.0597C158.472 75.6598 157.57 74.8033 155.717 74.4006L154.042 74.0426C153.045 73.8189 152.649 73.4737 152.655 72.9048C152.649 72.2401 153.384 71.7798 154.349 71.7798C155.416 71.7798 155.979 72.3615 156.158 73.0071L158.267 72.777ZM164.733 80.1918C167.021 80.1918 168.594 79.0732 169.003 77.3665L166.842 77.1236C166.529 77.9545 165.762 78.3892 164.765 78.3892C163.269 78.3892 162.278 77.4048 162.259 75.7237H169.099V75.0142C169.099 71.5689 167.028 70.054 164.611 70.054C161.799 70.054 159.964 72.1186 159.964 75.1484C159.964 78.2294 161.773 80.1918 164.733 80.1918ZM162.265 74.1641C162.336 72.9112 163.263 71.8565 164.643 71.8565C165.973 71.8565 166.868 72.8281 166.881 74.1641H162.265ZM175.623 66.9091V80H177.899V70.9872H178.02L181.638 79.9616H183.338L186.956 71.0064H187.078V80H189.353V66.9091H186.451L182.565 76.3949H182.412L178.525 66.9091H175.623ZM196.116 80.1918C198.993 80.1918 200.821 78.1655 200.821 75.1293C200.821 72.0866 198.993 70.054 196.116 70.054C193.24 70.054 191.412 72.0866 191.412 75.1293C191.412 78.1655 193.24 80.1918 196.116 80.1918ZM196.129 78.3381C194.537 78.3381 193.757 76.919 193.757 75.1229C193.757 73.3267 194.537 71.8885 196.129 71.8885C197.695 71.8885 198.475 73.3267 198.475 75.1229C198.475 76.919 197.695 78.3381 196.129 78.3381ZM205.099 74.2472C205.099 72.8281 205.955 72.0099 207.176 72.0099C208.371 72.0099 209.087 72.7962 209.087 74.1065V80H211.401V73.7486C211.407 71.3963 210.065 70.054 208.039 70.054C206.569 70.054 205.559 70.7571 205.111 71.8501H204.996V70.1818H202.785V80H205.099V74.2472ZM218.1 80.1918C220.388 80.1918 221.961 79.0732 222.37 77.3665L220.209 77.1236C219.896 77.9545 219.129 78.3892 218.132 78.3892C216.636 78.3892 215.645 77.4048 215.626 75.7237H222.466V75.0142C222.466 71.5689 220.395 70.054 217.979 70.054C215.166 70.054 213.331 72.1186 213.331 75.1484C213.331 78.2294 215.14 80.1918 218.1 80.1918ZM215.633 74.1641C215.703 72.9112 216.63 71.8565 218.01 71.8565C219.34 71.8565 220.235 72.8281 220.248 74.1641H215.633ZM225.58 83.6818C227.383 83.6818 228.425 82.755 228.981 81.1889L232.925 70.1946L230.451 70.1818L228.182 77.5966H228.08L225.817 70.1818H223.362L226.923 80.2045L226.724 80.7351C226.296 81.8537 225.619 81.9304 224.609 81.6364L224.072 83.4389C224.385 83.5668 224.947 83.6818 225.58 83.6818Z" fill="#232323"/>
<circle cx="56" cy="60" r="35" fill="#DCFAF8"/>
<g clip-path="url(#clip0_104_49)">
<path d="M70.977 50.2237C70.8494 48.7736 69.0891 48.128 68.0587 49.1585L66.5869 50.6304C66.2578 50.9594 65.7175 50.9648 65.3825 50.6423C65.0348 50.3077 65.0529 49.7312 65.3946 49.3895L66.8422 47.9418C67.8716 46.9124 67.2287 45.1514 65.7774 45.0236C61.833 44.6768 58.7043 48.3452 59.7504 52.2351L41.8322 70.1533C40.7227 71.2628 40.7225 73.0588 41.8322 74.1685C42.9392 75.2754 44.7403 75.2755 45.8474 74.1685L63.7609 56.2548C67.6044 57.2999 71.3275 54.2041 70.977 50.2237Z" fill="#16DBCC"/>
<path d="M42.875 51.8824C42.917 51.9652 42.9718 52.0409 43.0375 52.1066L45.581 54.65C45.9242 54.9932 46.4807 54.9932 46.8238 54.65L48.1173 53.3565L50.5875 55.8267L47.9466 58.4676C47.2623 59.1531 47.2629 60.2681 47.9472 60.953L48.2244 61.2301L57.238 52.2171L56.9609 51.9399C56.273 51.2533 55.1631 51.2523 54.4743 51.9399L51.8304 54.5838L49.3602 52.1136L50.6537 50.8201C50.9969 50.4769 50.9969 49.9204 50.6537 49.5772L48.1103 47.0338C48.0439 46.9674 47.9672 46.912 47.8833 46.8699L44.6324 45.2368C44.2938 45.0666 43.8844 45.1327 43.6164 45.4007L41.3951 47.6219C41.1264 47.8906 41.0609 48.3015 41.2326 48.6406L42.875 51.8824Z" fill="#16DBCC"/>
<path d="M62.3823 60.1198L56.126 66.3761L63.311 73.5629C65.0394 75.2913 67.8378 75.2918 69.5667 73.5629C71.2917 71.838 71.2917 69.0315 69.5667 67.3071L62.3823 60.1198ZM67.5307 71.5251C67.1897 71.8673 66.6318 71.8689 66.288 71.5251L61.2996 66.5366C60.9562 66.1933 60.9562 65.6367 61.2996 65.2939C61.6429 64.9506 62.1995 64.9506 62.5423 65.2939L67.5307 70.2824C67.874 70.6257 67.874 71.1817 67.5307 71.5251Z" fill="#16DBCC"/>
</g>
<defs>
<clipPath id="clip0_104_49">
<rect width="30" height="30" fill="white" transform="translate(41 45)"/>
</clipPath>
</defs>
</svg>
