<svg width="255" height="120" viewBox="0 0 255 120" fill="none" xmlns="http://www.w3.org/2000/svg">
<rect width="255" height="120" rx="25" fill="white"/>
<circle cx="62" cy="60" r="35" fill="#E7EDFF"/>
<g clip-path="url(#clip0_104_52)">
<path d="M61.7863 59.4511C63.7716 59.4511 65.4908 58.739 66.8954 57.3342C68.3 55.9295 69.0121 54.2109 69.0121 52.2253C69.0121 50.2405 68.3 48.5216 66.8952 47.1165C65.4903 45.712 63.7714 45 61.7863 45C59.8008 45 58.0821 45.712 56.6775 47.1167C55.2728 48.5213 54.5605 50.2402 54.5605 52.2253C54.5605 54.2109 55.2728 55.9298 56.6777 57.3344C58.0826 58.7388 59.8015 59.4511 61.7863 59.4511Z" fill="#396AFF"/>
<path d="M74.4293 68.0684C74.3888 67.4838 74.3069 66.8462 74.1863 66.1728C74.0645 65.4944 73.9077 64.8531 73.72 64.2669C73.5262 63.6611 73.2625 63.0628 72.9366 62.4894C72.5983 61.8943 72.2009 61.3762 71.7551 60.9497C71.2889 60.5037 70.718 60.145 70.0579 59.8834C69.4001 59.6232 68.6711 59.4913 67.8913 59.4913C67.5851 59.4913 67.2889 59.617 66.717 59.9894C66.3649 60.2189 65.9532 60.4844 65.4936 60.7781C65.1006 61.0285 64.5682 61.2631 63.9106 61.4755C63.2691 61.6831 62.6177 61.7884 61.9748 61.7884C61.3318 61.7884 60.6807 61.6831 60.0384 61.4755C59.3816 61.2633 58.8492 61.0287 58.4566 60.7783C58.0014 60.4874 57.5894 60.2219 57.2321 59.9891C56.6608 59.6167 56.3644 59.4911 56.0582 59.4911C55.2782 59.4911 54.5494 59.6232 53.8918 59.8836C53.2322 60.1448 52.6612 60.5034 52.1945 60.95C51.7488 61.3766 51.3513 61.8946 51.0134 62.4894C50.6877 63.0628 50.4241 63.6608 50.23 64.2671C50.0425 64.8533 49.8857 65.4944 49.764 66.1728C49.6434 66.8453 49.5614 67.4832 49.5209 68.0691C49.4811 68.6431 49.4609 69.2389 49.4609 69.8406C49.4609 71.4066 49.9588 72.6744 50.9404 73.6094C51.91 74.532 53.1928 75.0001 54.7529 75.0001H69.198C70.7581 75.0001 72.0405 74.5322 73.0103 73.6094C73.9922 72.6751 74.49 71.4071 74.49 69.8404C74.4898 69.2359 74.4694 68.6397 74.4293 68.0684Z" fill="#396AFF"/>
</g>
<path d="M117.76 82.8182H119.266L119.273 81.1918C122.32 80.9716 124.067 79.2955 124.074 76.9162C124.067 74.3949 121.986 73.2443 119.798 72.7259L119.33 72.6051L119.358 68.5497C120.494 68.7486 121.226 69.4304 121.339 70.4531H123.875C123.832 68.1946 122.057 66.5469 119.372 66.2912L119.379 64.6364H117.874L117.866 66.2912C115.203 66.5611 113.286 68.1946 113.293 70.5455C113.293 72.6335 114.777 73.8338 117.17 74.4517L117.81 74.6151L117.781 78.9119C116.51 78.7131 115.594 77.9886 115.501 76.7031H112.909C113.009 79.3665 114.841 80.9503 117.767 81.1918L117.76 82.8182ZM119.287 78.9119L119.315 75.0128C120.608 75.3892 121.432 75.8864 121.439 76.8949C121.432 77.946 120.587 78.6989 119.287 78.9119ZM117.824 72.2216C116.844 71.9091 115.949 71.3906 115.963 70.3821C115.97 69.4659 116.659 68.7557 117.852 68.5497L117.824 72.2216ZM131.338 81.1989C134.413 81.1989 136.558 79.1108 136.558 76.2202C136.558 73.4219 134.612 71.4048 131.97 71.4048C130.791 71.4048 129.747 71.8736 129.207 72.5128H129.122L129.541 68.6562H135.798V66.4545H127.36L126.6 73.9545L128.98 74.3452C129.47 73.8054 130.393 73.4432 131.267 73.4503C132.865 73.4574 134.015 74.6364 134.008 76.2841C134.015 77.9105 132.893 79.0682 131.338 79.0682C130.024 79.0682 128.966 78.2372 128.873 77.044H126.316C126.387 79.4588 128.497 81.1989 131.338 81.1989ZM144.314 81.277C147.822 81.2841 149.917 78.5142 149.917 73.7415C149.917 68.9972 147.808 66.2557 144.314 66.2557C140.819 66.2557 138.717 68.9901 138.71 73.7415C138.71 78.5071 140.805 81.277 144.314 81.277ZM144.314 79.054C142.502 79.054 141.366 77.2358 141.373 73.7415C141.38 70.2756 142.51 68.4503 144.314 68.4503C146.125 68.4503 147.254 70.2756 147.261 73.7415C147.261 77.2358 146.132 79.054 144.314 79.054ZM154.757 79.0114H152.485L152.435 79.8068C152.314 81.7315 151.81 83.6918 151.604 84.5511H153.337C153.678 83.6562 154.466 81.5824 154.665 79.7926L154.757 79.0114ZM162.419 81.277C165.928 81.2841 168.023 78.5142 168.023 73.7415C168.023 68.9972 165.913 66.2557 162.419 66.2557C158.925 66.2557 156.822 68.9901 156.815 73.7415C156.815 78.5071 158.911 81.277 162.419 81.277ZM162.419 79.054C160.608 79.054 159.472 77.2358 159.479 73.7415C159.486 70.2756 160.615 68.4503 162.419 68.4503C164.23 68.4503 165.359 70.2756 165.366 73.7415C165.366 77.2358 164.237 79.054 162.419 79.054ZM175.759 81.277C179.267 81.2841 181.363 78.5142 181.363 73.7415C181.363 68.9972 179.253 66.2557 175.759 66.2557C172.265 66.2557 170.162 68.9901 170.155 73.7415C170.155 78.5071 172.25 81.277 175.759 81.277ZM175.759 79.054C173.948 79.054 172.811 77.2358 172.819 73.7415C172.826 70.2756 173.955 68.4503 175.759 68.4503C177.57 68.4503 178.699 70.2756 178.706 73.7415C178.706 77.2358 177.577 79.054 175.759 79.054ZM189.099 81.277C192.607 81.2841 194.702 78.5142 194.702 73.7415C194.702 68.9972 192.593 66.2557 189.099 66.2557C185.604 66.2557 183.502 68.9901 183.495 73.7415C183.495 78.5071 185.59 81.277 189.099 81.277ZM189.099 79.054C187.288 79.054 186.151 77.2358 186.158 73.7415C186.165 70.2756 187.295 68.4503 189.099 68.4503C190.91 68.4503 192.039 70.2756 192.046 73.7415C192.046 77.2358 190.917 79.054 189.099 79.054Z" fill="#232323"/>
<path d="M113.409 50H114.818V45.75H117.364C120.074 45.75 121.295 44.1023 121.295 42.0455C121.295 39.9886 120.074 38.3636 117.341 38.3636H113.409V50ZM114.818 44.5V39.6136H117.295C119.188 39.6136 119.909 40.6477 119.909 42.0455C119.909 43.4432 119.188 44.5 117.318 44.5H114.818ZM126.949 50.1818C128.722 50.1818 130.017 49.2955 130.426 47.9773L129.131 47.6136C128.79 48.5227 128 48.9773 126.949 48.9773C125.375 48.9773 124.29 47.9602 124.227 46.0909H130.562V45.5227C130.562 42.2727 128.631 41.1591 126.812 41.1591C124.449 41.1591 122.881 43.0227 122.881 45.7045C122.881 48.3864 124.426 50.1818 126.949 50.1818ZM124.227 44.9318C124.318 43.5739 125.278 42.3636 126.812 42.3636C128.267 42.3636 129.199 43.4545 129.199 44.9318H124.227ZM132.602 50H133.943V44.4773C133.943 43.2955 134.875 42.4318 136.148 42.4318C136.506 42.4318 136.875 42.5 136.966 42.5227V41.1591C136.812 41.1477 136.46 41.1364 136.261 41.1364C135.216 41.1364 134.307 41.7273 133.989 42.5909H133.898V41.2727H132.602V50ZM144.737 43.2273C144.317 41.9886 143.374 41.1591 141.646 41.1591C139.805 41.1591 138.442 42.2045 138.442 43.6818C138.442 44.8864 139.158 45.6932 140.76 46.0682L142.214 46.4091C143.095 46.6136 143.51 47.0341 143.51 47.6364C143.51 48.3864 142.714 49 141.464 49C140.368 49 139.68 48.5284 139.442 47.5909L138.169 47.9091C138.482 49.392 139.703 50.1818 141.487 50.1818C143.516 50.1818 144.896 49.0739 144.896 47.5682C144.896 46.3523 144.135 45.5852 142.578 45.2045L141.283 44.8864C140.249 44.6307 139.783 44.2841 139.783 43.6136C139.783 42.8636 140.578 42.3182 141.646 42.3182C142.817 42.3182 143.3 42.9659 143.533 43.5682L144.737 43.2273ZM150.46 50.1818C152.824 50.1818 154.415 48.3864 154.415 45.6818C154.415 42.9545 152.824 41.1591 150.46 41.1591C148.097 41.1591 146.506 42.9545 146.506 45.6818C146.506 48.3864 148.097 50.1818 150.46 50.1818ZM150.46 48.9773C148.665 48.9773 147.847 47.4318 147.847 45.6818C147.847 43.9318 148.665 42.3636 150.46 42.3636C152.256 42.3636 153.074 43.9318 153.074 45.6818C153.074 47.4318 152.256 48.9773 150.46 48.9773ZM157.803 44.75C157.803 43.2273 158.746 42.3636 160.03 42.3636C161.274 42.3636 162.03 43.1761 162.03 44.5455V50H163.371V44.4545C163.371 42.2273 162.183 41.1591 160.416 41.1591C159.098 41.1591 158.28 41.75 157.871 42.6364H157.757V41.2727H156.462V50H157.803V44.75ZM168.389 50.2045C169.912 50.2045 170.707 49.3864 170.98 48.8182H171.048V50H172.389V44.25C172.389 41.4773 170.276 41.1591 169.162 41.1591C167.844 41.1591 166.344 41.6136 165.662 43.2045L166.935 43.6591C167.23 43.0227 167.929 42.3409 169.207 42.3409C170.44 42.3409 171.048 42.9943 171.048 44.1136V44.1591C171.048 44.8068 170.389 44.75 168.798 44.9545C167.179 45.1648 165.412 45.5227 165.412 47.5227C165.412 49.2273 166.73 50.2045 168.389 50.2045ZM168.594 49C167.526 49 166.753 48.5227 166.753 47.5909C166.753 46.5682 167.685 46.25 168.73 46.1136C169.298 46.0455 170.821 45.8864 171.048 45.6136V46.8409C171.048 47.9318 170.185 49 168.594 49ZM176.178 38.3636H174.837V50H176.178V38.3636ZM183.315 50H190.134V48.75H184.724V38.3636H183.315V50ZM195.679 50.1818C198.043 50.1818 199.634 48.3864 199.634 45.6818C199.634 42.9545 198.043 41.1591 195.679 41.1591C193.315 41.1591 191.724 42.9545 191.724 45.6818C191.724 48.3864 193.315 50.1818 195.679 50.1818ZM195.679 48.9773C193.884 48.9773 193.065 47.4318 193.065 45.6818C193.065 43.9318 193.884 42.3636 195.679 42.3636C197.474 42.3636 198.293 43.9318 198.293 45.6818C198.293 47.4318 197.474 48.9773 195.679 48.9773ZM204.249 50.2045C205.771 50.2045 206.567 49.3864 206.839 48.8182H206.908V50H208.249V44.25C208.249 41.4773 206.135 41.1591 205.021 41.1591C203.703 41.1591 202.203 41.6136 201.521 43.2045L202.794 43.6591C203.089 43.0227 203.788 42.3409 205.067 42.3409C206.3 42.3409 206.908 42.9943 206.908 44.1136V44.1591C206.908 44.8068 206.249 44.75 204.658 44.9545C203.038 45.1648 201.271 45.5227 201.271 47.5227C201.271 49.2273 202.589 50.2045 204.249 50.2045ZM204.453 49C203.385 49 202.612 48.5227 202.612 47.5909C202.612 46.5682 203.544 46.25 204.589 46.1136C205.158 46.0455 206.68 45.8864 206.908 45.6136V46.8409C206.908 47.9318 206.044 49 204.453 49ZM212.037 44.75C212.037 43.2273 212.98 42.3636 214.264 42.3636C215.509 42.3636 216.264 43.1761 216.264 44.5455V50H217.605V44.4545C217.605 42.2273 216.418 41.1591 214.651 41.1591C213.332 41.1591 212.514 41.75 212.105 42.6364H211.991V41.2727H210.696V50H212.037V44.75ZM226.237 43.2273C225.817 41.9886 224.874 41.1591 223.146 41.1591C221.305 41.1591 219.942 42.2045 219.942 43.6818C219.942 44.8864 220.658 45.6932 222.26 46.0682L223.714 46.4091C224.595 46.6136 225.01 47.0341 225.01 47.6364C225.01 48.3864 224.214 49 222.964 49C221.868 49 221.18 48.5284 220.942 47.5909L219.669 47.9091C219.982 49.392 221.203 50.1818 222.987 50.1818C225.016 50.1818 226.396 49.0739 226.396 47.5682C226.396 46.3523 225.635 45.5852 224.078 45.2045L222.783 44.8864C221.749 44.6307 221.283 44.2841 221.283 43.6136C221.283 42.8636 222.078 42.3182 223.146 42.3182C224.317 42.3182 224.8 42.9659 225.033 43.5682L226.237 43.2273Z" fill="#718EBF"/>
<defs>
<clipPath id="clip0_104_52">
<rect width="29.9999" height="30" fill="white" transform="translate(47 45)"/>
</clipPath>
</defs>
</svg>
