<svg width="255" height="120" viewBox="0 0 255 120" fill="none" xmlns="http://www.w3.org/2000/svg">
<rect width="255" height="120" rx="25" fill="white"/>
<path d="M116.76 82.8182H118.266L118.273 81.1918C121.32 80.9716 123.067 79.2955 123.074 76.9162C123.067 74.3949 120.986 73.2443 118.798 72.7259L118.33 72.6051L118.358 68.5497C119.494 68.7486 120.226 69.4304 120.339 70.4531H122.875C122.832 68.1946 121.057 66.5469 118.372 66.2912L118.379 64.6364H116.874L116.866 66.2912C114.203 66.5611 112.286 68.1946 112.293 70.5455C112.293 72.6335 113.777 73.8338 116.17 74.4517L116.81 74.6151L116.781 78.9119C115.51 78.7131 114.594 77.9886 114.501 76.7031H111.909C112.009 79.3665 113.841 80.9503 116.767 81.1918L116.76 82.8182ZM118.287 78.9119L118.315 75.0128C119.608 75.3892 120.432 75.8864 120.439 76.8949C120.432 77.946 119.587 78.6989 118.287 78.9119ZM116.824 72.2216C115.844 71.9091 114.949 71.3906 114.963 70.3821C114.97 69.4659 115.659 68.7557 116.852 68.5497L116.824 72.2216ZM130.338 81.1989C133.413 81.1989 135.558 79.1108 135.558 76.2202C135.558 73.4219 133.612 71.4048 130.97 71.4048C129.791 71.4048 128.747 71.8736 128.207 72.5128H128.122L128.541 68.6562H134.798V66.4545H126.36L125.6 73.9545L127.98 74.3452C128.47 73.8054 129.393 73.4432 130.267 73.4503C131.865 73.4574 133.015 74.6364 133.008 76.2841C133.015 77.9105 131.893 79.0682 130.338 79.0682C129.024 79.0682 127.966 78.2372 127.873 77.044H125.316C125.387 79.4588 127.497 81.1989 130.338 81.1989ZM143.314 81.277C146.822 81.2841 148.917 78.5142 148.917 73.7415C148.917 68.9972 146.808 66.2557 143.314 66.2557C139.819 66.2557 137.717 68.9901 137.71 73.7415C137.71 78.5071 139.805 81.277 143.314 81.277ZM143.314 79.054C141.502 79.054 140.366 77.2358 140.373 73.7415C140.38 70.2756 141.51 68.4503 143.314 68.4503C145.125 68.4503 146.254 70.2756 146.261 73.7415C146.261 77.2358 145.132 79.054 143.314 79.054ZM156.653 81.277C160.162 81.2841 162.257 78.5142 162.257 73.7415C162.257 68.9972 160.148 66.2557 156.653 66.2557C153.159 66.2557 151.057 68.9901 151.05 73.7415C151.05 78.5071 153.145 81.277 156.653 81.277ZM156.653 79.054C154.842 79.054 153.706 77.2358 153.713 73.7415C153.72 70.2756 154.849 68.4503 156.653 68.4503C158.464 68.4503 159.594 70.2756 159.601 73.7415C159.601 77.2358 158.472 79.054 156.653 79.054ZM167.097 79.0114H164.825L164.775 79.8068C164.654 81.7315 164.15 83.6918 163.944 84.5511H165.677C166.018 83.6562 166.806 81.5824 167.005 79.7926L167.097 79.0114ZM174.759 81.277C178.267 81.2841 180.363 78.5142 180.363 73.7415C180.363 68.9972 178.253 66.2557 174.759 66.2557C171.265 66.2557 169.162 68.9901 169.155 73.7415C169.155 78.5071 171.25 81.277 174.759 81.277ZM174.759 79.054C172.948 79.054 171.811 77.2358 171.819 73.7415C171.826 70.2756 172.955 68.4503 174.759 68.4503C176.57 68.4503 177.699 70.2756 177.706 73.7415C177.706 77.2358 176.577 79.054 174.759 79.054ZM188.099 81.277C191.607 81.2841 193.702 78.5142 193.702 73.7415C193.702 68.9972 191.593 66.2557 188.099 66.2557C184.604 66.2557 182.502 68.9901 182.495 73.7415C182.495 78.5071 184.59 81.277 188.099 81.277ZM188.099 79.054C186.288 79.054 185.151 77.2358 185.158 73.7415C185.165 70.2756 186.295 68.4503 188.099 68.4503C189.91 68.4503 191.039 70.2756 191.046 73.7415C191.046 77.2358 189.917 79.054 188.099 79.054ZM201.439 81.277C204.947 81.2841 207.042 78.5142 207.042 73.7415C207.042 68.9972 204.933 66.2557 201.439 66.2557C197.944 66.2557 195.842 68.9901 195.835 73.7415C195.835 78.5071 197.93 81.277 201.439 81.277ZM201.439 79.054C199.627 79.054 198.491 77.2358 198.498 73.7415C198.505 70.2756 199.635 68.4503 201.439 68.4503C203.25 68.4503 204.379 70.2756 204.386 73.7415C204.386 77.2358 203.257 79.054 201.439 79.054Z" fill="#232323"/>
<path d="M112.409 50H116.614C119.364 50 120.5 48.6591 120.5 46.9091C120.5 45.0682 119.227 44.0682 118.159 44V43.8864C119.159 43.6136 120.045 42.9545 120.045 41.4545C120.045 39.75 118.909 38.3636 116.477 38.3636H112.409V50ZM113.818 48.75V44.7045H116.682C118.205 44.7045 119.159 45.7273 119.159 46.9091C119.159 47.9318 118.455 48.75 116.614 48.75H113.818ZM113.818 43.4773V39.6136H116.477C118.023 39.6136 118.705 40.4318 118.705 41.4545C118.705 42.6818 117.705 43.4773 116.432 43.4773H113.818ZM128.134 46.4318C128.134 48.0682 126.884 48.8182 125.884 48.8182C124.77 48.8182 123.974 48 123.974 46.7273V41.2727H122.634V46.8182C122.634 49.0455 123.815 50.1136 125.452 50.1136C126.77 50.1136 127.634 49.4091 128.043 48.5227H128.134V50H129.474V41.2727H128.134V46.4318ZM138.112 43.2273C137.692 41.9886 136.749 41.1591 135.021 41.1591C133.18 41.1591 131.817 42.2045 131.817 43.6818C131.817 44.8864 132.533 45.6932 134.135 46.0682L135.589 46.4091C136.47 46.6136 136.885 47.0341 136.885 47.6364C136.885 48.3864 136.089 49 134.839 49C133.743 49 133.055 48.5284 132.817 47.5909L131.544 47.9091C131.857 49.392 133.078 50.1818 134.862 50.1818C136.891 50.1818 138.271 49.0739 138.271 47.5682C138.271 46.3523 137.51 45.5852 135.953 45.2045L134.658 44.8864C133.624 44.6307 133.158 44.2841 133.158 43.6136C133.158 42.8636 133.953 42.3182 135.021 42.3182C136.192 42.3182 136.675 42.9659 136.908 43.5682L138.112 43.2273ZM140.29 50H141.631V41.2727H140.29V50ZM140.972 39.8182C141.494 39.8182 141.926 39.4091 141.926 38.9091C141.926 38.4091 141.494 38 140.972 38C140.449 38 140.017 38.4091 140.017 38.9091C140.017 39.4091 140.449 39.8182 140.972 39.8182ZM145.428 44.75C145.428 43.2273 146.371 42.3636 147.655 42.3636C148.899 42.3636 149.655 43.1761 149.655 44.5455V50H150.996V44.4545C150.996 42.2273 149.808 41.1591 148.041 41.1591C146.723 41.1591 145.905 41.75 145.496 42.6364H145.382V41.2727H144.087V50H145.428V44.75ZM157.105 50.1818C158.878 50.1818 160.173 49.2955 160.582 47.9773L159.287 47.6136C158.946 48.5227 158.156 48.9773 157.105 48.9773C155.531 48.9773 154.446 47.9602 154.384 46.0909H160.719V45.5227C160.719 42.2727 158.787 41.1591 156.969 41.1591C154.605 41.1591 153.037 43.0227 153.037 45.7045C153.037 48.3864 154.582 50.1818 157.105 50.1818ZM154.384 44.9318C154.474 43.5739 155.435 42.3636 156.969 42.3636C158.423 42.3636 159.355 43.4545 159.355 44.9318H154.384ZM168.94 43.2273C168.52 41.9886 167.577 41.1591 165.849 41.1591C164.009 41.1591 162.645 42.2045 162.645 43.6818C162.645 44.8864 163.361 45.6932 164.963 46.0682L166.418 46.4091C167.298 46.6136 167.713 47.0341 167.713 47.6364C167.713 48.3864 166.918 49 165.668 49C164.571 49 163.884 48.5284 163.645 47.5909L162.372 47.9091C162.685 49.392 163.906 50.1818 165.69 50.1818C167.719 50.1818 169.099 49.0739 169.099 47.5682C169.099 46.3523 168.338 45.5852 166.781 45.2045L165.486 44.8864C164.452 44.6307 163.986 44.2841 163.986 43.6136C163.986 42.8636 164.781 42.3182 165.849 42.3182C167.02 42.3182 167.503 42.9659 167.736 43.5682L168.94 43.2273ZM177.3 43.2273C176.879 41.9886 175.936 41.1591 174.209 41.1591C172.368 41.1591 171.004 42.2045 171.004 43.6818C171.004 44.8864 171.72 45.6932 173.322 46.0682L174.777 46.4091C175.658 46.6136 176.072 47.0341 176.072 47.6364C176.072 48.3864 175.277 49 174.027 49C172.93 49 172.243 48.5284 172.004 47.5909L170.732 47.9091C171.044 49.392 172.266 50.1818 174.05 50.1818C176.078 50.1818 177.459 49.0739 177.459 47.5682C177.459 46.3523 176.697 45.5852 175.141 45.2045L173.845 44.8864C172.811 44.6307 172.345 44.2841 172.345 43.6136C172.345 42.8636 173.141 42.3182 174.209 42.3182C175.379 42.3182 175.862 42.9659 176.095 43.5682L177.3 43.2273ZM184.159 50H190.977V48.75H185.568V38.3636H184.159V50ZM196.523 50.1818C198.886 50.1818 200.477 48.3864 200.477 45.6818C200.477 42.9545 198.886 41.1591 196.523 41.1591C194.159 41.1591 192.568 42.9545 192.568 45.6818C192.568 48.3864 194.159 50.1818 196.523 50.1818ZM196.523 48.9773C194.727 48.9773 193.909 47.4318 193.909 45.6818C193.909 43.9318 194.727 42.3636 196.523 42.3636C198.318 42.3636 199.136 43.9318 199.136 45.6818C199.136 47.4318 198.318 48.9773 196.523 48.9773ZM205.092 50.2045C206.615 50.2045 207.411 49.3864 207.683 48.8182H207.751V50H209.092V44.25C209.092 41.4773 206.979 41.1591 205.865 41.1591C204.547 41.1591 203.047 41.6136 202.365 43.2045L203.638 43.6591C203.933 43.0227 204.632 42.3409 205.911 42.3409C207.143 42.3409 207.751 42.9943 207.751 44.1136V44.1591C207.751 44.8068 207.092 44.75 205.501 44.9545C203.882 45.1648 202.115 45.5227 202.115 47.5227C202.115 49.2273 203.433 50.2045 205.092 50.2045ZM205.297 49C204.229 49 203.456 48.5227 203.456 47.5909C203.456 46.5682 204.388 46.25 205.433 46.1136C206.001 46.0455 207.524 45.8864 207.751 45.6136V46.8409C207.751 47.9318 206.888 49 205.297 49ZM212.881 44.75C212.881 43.2273 213.824 42.3636 215.108 42.3636C216.352 42.3636 217.108 43.1761 217.108 44.5455V50H218.449V44.4545C218.449 42.2273 217.261 41.1591 215.494 41.1591C214.176 41.1591 213.358 41.75 212.949 42.6364H212.835V41.2727H211.54V50H212.881V44.75ZM227.081 43.2273C226.661 41.9886 225.717 41.1591 223.99 41.1591C222.149 41.1591 220.786 42.2045 220.786 43.6818C220.786 44.8864 221.501 45.6932 223.104 46.0682L224.558 46.4091C225.439 46.6136 225.854 47.0341 225.854 47.6364C225.854 48.3864 225.058 49 223.808 49C222.712 49 222.024 48.5284 221.786 47.5909L220.513 47.9091C220.825 49.392 222.047 50.1818 223.831 50.1818C225.859 50.1818 227.24 49.0739 227.24 47.5682C227.24 46.3523 226.479 45.5852 224.922 45.2045L223.626 44.8864C222.592 44.6307 222.126 44.2841 222.126 43.6136C222.126 42.8636 222.922 42.3182 223.99 42.3182C225.161 42.3182 225.643 42.9659 225.876 43.5682L227.081 43.2273Z" fill="#718EBF"/>
<circle cx="61" cy="60" r="35" fill="#FFE0EB"/>
<g clip-path="url(#clip0_104_46)">
<path d="M60.7651 75H58.4214C57.2582 75 56.312 74.0538 56.312 72.8906V58.3594C56.312 57.1962 57.2582 56.25 58.4214 56.25H60.7651C61.9283 56.25 62.8745 57.1962 62.8745 58.3594V72.8906C62.8745 74.0538 61.9282 75 60.7651 75Z" fill="#FF82AC"/>
<path d="M51.8589 75H49.5151C48.352 75 47.4058 74.0538 47.4058 72.8906V63.0469C47.4058 61.8837 48.352 60.9375 49.5151 60.9375H51.8589C53.022 60.9375 53.9683 61.8837 53.9683 63.0469V72.8906C53.9683 74.0538 53.022 75 51.8589 75Z" fill="#FF82AC"/>
<path d="M69.6714 75H67.3276C66.1645 75 65.2182 74.0538 65.2182 72.8906V53.4375H63.9304C63.3282 53.4375 62.7979 53.0977 62.5463 52.5506C62.2946 52.0036 62.3818 51.3798 62.7737 50.9226C62.7781 50.9174 62.7827 50.9122 62.7872 50.9071L67.8013 45.3118C67.9791 45.1134 68.233 45 68.4995 45C68.766 45 69.0198 45.1134 69.1977 45.3118L74.2118 50.9071C74.2164 50.9122 74.2209 50.9174 74.2254 50.9226C74.6172 51.3797 74.7044 52.0036 74.4528 52.5506C74.2012 53.0977 73.6708 53.4375 73.0687 53.4375H71.7808V72.8906C71.7808 74.0538 70.8345 75 69.6714 75Z" fill="#FF82AC"/>
</g>
<defs>
<clipPath id="clip0_104_46">
<rect width="30" height="30" fill="white" transform="translate(46 45)"/>
</clipPath>
</defs>
</svg>
