<svg width="255" height="120" viewBox="0 0 255 120" fill="none" xmlns="http://www.w3.org/2000/svg">
<rect width="255" height="120" rx="25" fill="white"/>
<path d="M112.76 82.8182H114.266L114.273 81.1918C117.32 80.9716 119.067 79.2955 119.074 76.9162C119.067 74.3949 116.986 73.2443 114.798 72.7259L114.33 72.6051L114.358 68.5497C115.494 68.7486 116.226 69.4304 116.339 70.4531H118.875C118.832 68.1946 117.057 66.5469 114.372 66.2912L114.379 64.6364H112.874L112.866 66.2912C110.203 66.5611 108.286 68.1946 108.293 70.5455C108.293 72.6335 109.777 73.8338 112.17 74.4517L112.81 74.6151L112.781 78.9119C111.51 78.7131 110.594 77.9886 110.501 76.7031H107.909C108.009 79.3665 109.841 80.9503 112.767 81.1918L112.76 82.8182ZM114.287 78.9119L114.315 75.0128C115.608 75.3892 116.432 75.8864 116.439 76.8949C116.432 77.946 115.587 78.6989 114.287 78.9119ZM112.824 72.2216C111.844 71.9091 110.949 71.3906 110.963 70.3821C110.97 69.4659 111.659 68.7557 112.852 68.5497L112.824 72.2216ZM127.197 66.4545H124.69L121.075 68.777V71.1918L124.477 69.0185H124.562V81H127.197V66.4545ZM136.267 81.277C139.775 81.2841 141.87 78.5142 141.87 73.7415C141.87 68.9972 139.761 66.2557 136.267 66.2557C132.772 66.2557 130.67 68.9901 130.663 73.7415C130.663 78.5071 132.758 81.277 136.267 81.277ZM136.267 79.054C134.456 79.054 133.319 77.2358 133.326 73.7415C133.333 70.2756 134.463 68.4503 136.267 68.4503C138.078 68.4503 139.207 70.2756 139.214 73.7415C139.214 77.2358 138.085 79.054 136.267 79.054ZM149.607 81.277C153.115 81.2841 155.21 78.5142 155.21 73.7415C155.21 68.9972 153.101 66.2557 149.607 66.2557C146.112 66.2557 144.01 68.9901 144.003 73.7415C144.003 78.5071 146.098 81.277 149.607 81.277ZM149.607 79.054C147.795 79.054 146.659 77.2358 146.666 73.7415C146.673 70.2756 147.803 68.4503 149.607 68.4503C151.418 68.4503 152.547 70.2756 152.554 73.7415C152.554 77.2358 151.425 79.054 149.607 79.054ZM160.05 79.0114H157.778L157.728 79.8068C157.607 81.7315 157.103 83.6918 156.897 84.5511H158.63C158.971 83.6562 159.759 81.5824 159.958 79.7926L160.05 79.0114ZM167.712 81.277C171.221 81.2841 173.316 78.5142 173.316 73.7415C173.316 68.9972 171.206 66.2557 167.712 66.2557C164.218 66.2557 162.115 68.9901 162.108 73.7415C162.108 78.5071 164.203 81.277 167.712 81.277ZM167.712 79.054C165.901 79.054 164.765 77.2358 164.772 73.7415C164.779 70.2756 165.908 68.4503 167.712 68.4503C169.523 68.4503 170.652 70.2756 170.659 73.7415C170.659 77.2358 169.53 79.054 167.712 79.054ZM181.052 81.277C184.56 81.2841 186.656 78.5142 186.656 73.7415C186.656 68.9972 184.546 66.2557 181.052 66.2557C177.558 66.2557 175.455 68.9901 175.448 73.7415C175.448 78.5071 177.543 81.277 181.052 81.277ZM181.052 79.054C179.241 79.054 178.104 77.2358 178.112 73.7415C178.119 70.2756 179.248 68.4503 181.052 68.4503C182.863 68.4503 183.992 70.2756 183.999 73.7415C183.999 77.2358 182.87 79.054 181.052 79.054ZM194.392 81.277C197.9 81.2841 199.995 78.5142 199.995 73.7415C199.995 68.9972 197.886 66.2557 194.392 66.2557C190.897 66.2557 188.795 68.9901 188.788 73.7415C188.788 78.5071 190.883 81.277 194.392 81.277ZM194.392 79.054C192.581 79.054 191.444 77.2358 191.451 73.7415C191.458 70.2756 192.588 68.4503 194.392 68.4503C196.203 68.4503 197.332 70.2756 197.339 73.7415C197.339 77.2358 196.21 79.054 194.392 79.054Z" fill="#232323"/>
<path d="M117.773 42C117.341 39.6136 115.432 38.2045 113.091 38.2045C110.114 38.2045 107.955 40.5 107.955 44.1818C107.955 47.8636 110.114 50.1591 113.091 50.1591C115.432 50.1591 117.341 48.75 117.773 46.3636H116.364C116.023 47.9773 114.636 48.8409 113.091 48.8409C110.977 48.8409 109.318 47.2045 109.318 44.1818C109.318 41.1591 110.977 39.5227 113.091 39.5227C114.636 39.5227 116.023 40.3864 116.364 42H117.773ZM123.413 50.1818C125.777 50.1818 127.368 48.3864 127.368 45.6818C127.368 42.9545 125.777 41.1591 123.413 41.1591C121.05 41.1591 119.459 42.9545 119.459 45.6818C119.459 48.3864 121.05 50.1818 123.413 50.1818ZM123.413 48.9773C121.618 48.9773 120.8 47.4318 120.8 45.6818C120.8 43.9318 121.618 42.3636 123.413 42.3636C125.209 42.3636 126.027 43.9318 126.027 45.6818C126.027 47.4318 125.209 48.9773 123.413 48.9773ZM129.415 50H130.756V44.4773C130.756 43.2955 131.688 42.4318 132.96 42.4318C133.318 42.4318 133.688 42.5 133.778 42.5227V41.1591C133.625 41.1477 133.273 41.1364 133.074 41.1364C132.028 41.1364 131.119 41.7273 130.801 42.5909H130.71V41.2727H129.415V50ZM135.368 53.2727H136.709V48.6591H136.822C137.118 49.1364 137.686 50.1818 139.368 50.1818C141.55 50.1818 143.072 48.4318 143.072 45.6591C143.072 42.9091 141.55 41.1591 139.345 41.1591C137.641 41.1591 137.118 42.2045 136.822 42.6591H136.663V41.2727H135.368V53.2727ZM136.686 45.6364C136.686 43.6818 137.55 42.3636 139.186 42.3636C140.891 42.3636 141.732 43.7955 141.732 45.6364C141.732 47.5 140.868 48.9773 139.186 48.9773C137.572 48.9773 136.686 47.6136 136.686 45.6364ZM148.663 50.1818C151.027 50.1818 152.618 48.3864 152.618 45.6818C152.618 42.9545 151.027 41.1591 148.663 41.1591C146.3 41.1591 144.709 42.9545 144.709 45.6818C144.709 48.3864 146.3 50.1818 148.663 50.1818ZM148.663 48.9773C146.868 48.9773 146.05 47.4318 146.05 45.6818C146.05 43.9318 146.868 42.3636 148.663 42.3636C150.459 42.3636 151.277 43.9318 151.277 45.6818C151.277 47.4318 150.459 48.9773 148.663 48.9773ZM154.665 50H156.006V44.4773C156.006 43.2955 156.938 42.4318 158.21 42.4318C158.568 42.4318 158.938 42.5 159.028 42.5227V41.1591C158.875 41.1477 158.523 41.1364 158.324 41.1364C157.278 41.1364 156.369 41.7273 156.051 42.5909H155.96V41.2727H154.665V50ZM163.186 50.2045C164.709 50.2045 165.504 49.3864 165.777 48.8182H165.845V50H167.186V44.25C167.186 41.4773 165.072 41.1591 163.959 41.1591C162.641 41.1591 161.141 41.6136 160.459 43.2045L161.732 43.6591C162.027 43.0227 162.726 42.3409 164.004 42.3409C165.237 42.3409 165.845 42.9943 165.845 44.1136V44.1591C165.845 44.8068 165.186 44.75 163.595 44.9545C161.976 45.1648 160.209 45.5227 160.209 47.5227C160.209 49.2273 161.527 50.2045 163.186 50.2045ZM163.391 49C162.322 49 161.55 48.5227 161.55 47.5909C161.55 46.5682 162.482 46.25 163.527 46.1136C164.095 46.0455 165.618 45.8864 165.845 45.6136V46.8409C165.845 47.9318 164.982 49 163.391 49ZM173.429 41.2727H171.565V39.1818H170.224V41.2727H168.906V42.4091H170.224V47.8636C170.224 49.3864 171.452 50.1136 172.588 50.1136C173.088 50.1136 173.406 50.0227 173.588 49.9545L173.315 48.75C173.202 48.7727 173.02 48.8182 172.724 48.8182C172.134 48.8182 171.565 48.6364 171.565 47.5V42.4091H173.429V41.2727ZM179.011 50.1818C180.784 50.1818 182.08 49.2955 182.489 47.9773L181.193 47.6136C180.852 48.5227 180.062 48.9773 179.011 48.9773C177.438 48.9773 176.352 47.9602 176.29 46.0909H182.625V45.5227C182.625 42.2727 180.693 41.1591 178.875 41.1591C176.511 41.1591 174.943 43.0227 174.943 45.7045C174.943 48.3864 176.489 50.1818 179.011 50.1818ZM176.29 44.9318C176.381 43.5739 177.341 42.3636 178.875 42.3636C180.33 42.3636 181.261 43.4545 181.261 44.9318H176.29ZM189.347 50H196.165V48.75H190.756V38.3636H189.347V50ZM201.71 50.1818C204.074 50.1818 205.665 48.3864 205.665 45.6818C205.665 42.9545 204.074 41.1591 201.71 41.1591C199.347 41.1591 197.756 42.9545 197.756 45.6818C197.756 48.3864 199.347 50.1818 201.71 50.1818ZM201.71 48.9773C199.915 48.9773 199.097 47.4318 199.097 45.6818C199.097 43.9318 199.915 42.3636 201.71 42.3636C203.506 42.3636 204.324 43.9318 204.324 45.6818C204.324 47.4318 203.506 48.9773 201.71 48.9773ZM210.28 50.2045C211.803 50.2045 212.598 49.3864 212.871 48.8182H212.939V50H214.28V44.25C214.28 41.4773 212.166 41.1591 211.053 41.1591C209.734 41.1591 208.234 41.6136 207.553 43.2045L208.825 43.6591C209.121 43.0227 209.82 42.3409 211.098 42.3409C212.331 42.3409 212.939 42.9943 212.939 44.1136V44.1591C212.939 44.8068 212.28 44.75 210.689 44.9545C209.07 45.1648 207.303 45.5227 207.303 47.5227C207.303 49.2273 208.621 50.2045 210.28 50.2045ZM210.484 49C209.416 49 208.643 48.5227 208.643 47.5909C208.643 46.5682 209.575 46.25 210.621 46.1136C211.189 46.0455 212.712 45.8864 212.939 45.6136V46.8409C212.939 47.9318 212.075 49 210.484 49ZM218.068 44.75C218.068 43.2273 219.011 42.3636 220.295 42.3636C221.54 42.3636 222.295 43.1761 222.295 44.5455V50H223.636V44.4545C223.636 42.2273 222.449 41.1591 220.682 41.1591C219.364 41.1591 218.545 41.75 218.136 42.6364H218.023V41.2727H216.727V50H218.068V44.75ZM232.268 43.2273C231.848 41.9886 230.905 41.1591 229.178 41.1591C227.337 41.1591 225.973 42.2045 225.973 43.6818C225.973 44.8864 226.689 45.6932 228.291 46.0682L229.746 46.4091C230.626 46.6136 231.041 47.0341 231.041 47.6364C231.041 48.3864 230.246 49 228.996 49C227.899 49 227.212 48.5284 226.973 47.5909L225.7 47.9091C226.013 49.392 227.234 50.1818 229.018 50.1818C231.047 50.1818 232.428 49.0739 232.428 47.5682C232.428 46.3523 231.666 45.5852 230.109 45.2045L228.814 44.8864C227.78 44.6307 227.314 44.2841 227.314 43.6136C227.314 42.8636 228.109 42.3182 229.178 42.3182C230.348 42.3182 230.831 42.9659 231.064 43.5682L232.268 43.2273Z" fill="#718EBF"/>
<circle cx="57" cy="60" r="35" fill="#FFF5D9"/>
<g clip-path="url(#clip0_104_43)">
<path d="M69.5 51.2499H63.25V49.9999C63.25 48.6211 62.1288 47.4999 60.75 47.4999H53.25C51.8712 47.4999 50.75 48.6211 50.75 49.9999V51.2499H44.5C43.1212 51.2499 42 52.3711 42 53.7499V57.4999C42 58.8787 43.1212 59.9999 44.5 59.9999H54.5V59.3749C54.5 59.0294 54.7796 58.7499 55.1251 58.7499H58.8751C59.2205 58.7499 59.5001 59.0294 59.5001 59.3749V59.9999H69.5001C70.8788 59.9999 72 58.8787 72 57.4999V53.7499C72 52.3711 70.8788 51.2499 69.5 51.2499ZM60.75 51.2499H53.25V49.9999H60.75V51.2499Z" fill="#FFBB38"/>
<path d="M71.6533 60.6743C71.4403 60.5687 71.1858 60.5931 70.9978 60.7359C70.5534 61.0723 70.0358 61.2498 69.4999 61.2498H59.5V63.1249C59.5 63.4703 59.2205 63.7499 58.875 63.7499H55.125C54.7795 63.7499 54.5 63.4703 54.5 63.1249V61.2498H44.5C43.9641 61.2498 43.4466 61.0723 43.0022 60.7359C42.8136 60.5919 42.5597 60.5675 42.3466 60.6743C42.1343 60.7799 42 60.9965 42 61.234V69.9999C42 71.3787 43.1212 72.4999 44.5 72.4999H69.5C70.8788 72.4999 72.0001 71.3787 72.0001 69.9999V61.234C72 60.9965 71.8657 60.7799 71.6533 60.6743Z" fill="#FFBB38"/>
</g>
<defs>
<clipPath id="clip0_104_43">
<rect width="30" height="30" fill="white" transform="translate(42 45)"/>
</clipPath>
</defs>
</svg>
