<svg width="350" height="120" viewBox="0 0 350 120" fill="none" xmlns="http://www.w3.org/2000/svg">
<rect width="350" height="120" rx="25" fill="white"/>
<path d="M136.209 66.4545H133.702L130.087 68.777V71.1918L133.489 69.0185H133.574V81H136.209V66.4545ZM142.148 79.0114H139.875L139.826 79.8068C139.705 81.7315 139.201 83.6918 138.995 84.5511H140.728C141.069 83.6562 141.857 81.5824 142.056 79.7926L142.148 79.0114ZM145 81H154.971V78.7983H148.636V78.6989L151.143 76.1491C153.97 73.4361 154.751 72.1151 154.751 70.4744C154.751 68.0384 152.77 66.2557 149.843 66.2557C146.96 66.2557 144.914 68.0455 144.914 70.8082H147.422C147.422 69.3239 148.359 68.3935 149.808 68.3935C151.193 68.3935 152.223 69.2386 152.223 70.6094C152.223 71.8239 151.484 72.6903 150.049 74.1463L145 79.0966V81ZM162.478 81.1989C165.554 81.1989 167.699 79.1108 167.699 76.2202C167.699 73.4219 165.752 71.4048 163.11 71.4048C161.931 71.4048 160.887 71.8736 160.348 72.5128H160.262L160.681 68.6562H166.939V66.4545H158.501L157.741 73.9545L160.12 74.3452C160.61 73.8054 161.534 73.4432 162.407 73.4503C164.005 73.4574 165.156 74.6364 165.149 76.2841C165.156 77.9105 164.034 79.0682 162.478 79.0682C161.164 79.0682 160.106 78.2372 160.014 77.044H157.457C157.528 79.4588 159.637 81.1989 162.478 81.1989ZM175.454 81.277C178.963 81.2841 181.058 78.5142 181.058 73.7415C181.058 68.9972 178.949 66.2557 175.454 66.2557C171.96 66.2557 169.858 68.9901 169.85 73.7415C169.85 78.5071 171.946 81.277 175.454 81.277ZM175.454 79.054C173.643 79.054 172.507 77.2358 172.514 73.7415C172.521 70.2756 173.65 68.4503 175.454 68.4503C177.265 68.4503 178.395 70.2756 178.402 73.7415C178.402 77.2358 177.272 79.054 175.454 79.054Z" fill="#232323"/>
<path d="M139.636 38.3636H138.25V47.5227H138.136L131.773 38.3636H130.409V50H131.818V40.8636H131.932L138.273 50H139.636V38.3636ZM147.774 46.4318C147.774 48.0682 146.524 48.8182 145.524 48.8182C144.411 48.8182 143.615 48 143.615 46.7273V41.2727H142.274V46.8182C142.274 49.0455 143.456 50.1136 145.092 50.1136C146.411 50.1136 147.274 49.4091 147.683 48.5227H147.774V50H149.115V41.2727H147.774V46.4318ZM151.571 50H152.912V44.5455C152.912 43.267 153.844 42.3636 154.889 42.3636C155.906 42.3636 156.616 43.0284 156.616 44.0227V50H157.98V44.3182C157.98 43.1932 158.685 42.3636 159.912 42.3636C160.866 42.3636 161.685 42.8693 161.685 44.1591V50H163.026V44.1591C163.026 42.108 161.923 41.1591 160.366 41.1591C159.116 41.1591 158.202 41.733 157.753 42.6364H157.662C157.23 41.7045 156.469 41.1591 155.321 41.1591C154.185 41.1591 153.344 41.7045 152.98 42.6364H152.866V41.2727H151.571V50ZM165.659 50H166.955V48.6591H167.114C167.409 49.1364 167.977 50.1818 169.659 50.1818C171.841 50.1818 173.364 48.4318 173.364 45.6591C173.364 42.9091 171.841 41.1591 169.636 41.1591C167.932 41.1591 167.409 42.2045 167.114 42.6591H167V38.3636H165.659V50ZM166.977 45.6364C166.977 43.6818 167.841 42.3636 169.477 42.3636C171.182 42.3636 172.023 43.7955 172.023 45.6364C172.023 47.5 171.159 48.9773 169.477 48.9773C167.864 48.9773 166.977 47.6136 166.977 45.6364ZM179.074 50.1818C180.847 50.1818 182.142 49.2955 182.551 47.9773L181.256 47.6136C180.915 48.5227 180.125 48.9773 179.074 48.9773C177.5 48.9773 176.415 47.9602 176.352 46.0909H182.688V45.5227C182.688 42.2727 180.756 41.1591 178.938 41.1591C176.574 41.1591 175.006 43.0227 175.006 45.7045C175.006 48.3864 176.551 50.1818 179.074 50.1818ZM176.352 44.9318C176.443 43.5739 177.403 42.3636 178.938 42.3636C180.392 42.3636 181.324 43.4545 181.324 44.9318H176.352ZM184.727 50H186.068V44.4773C186.068 43.2955 187 42.4318 188.273 42.4318C188.631 42.4318 189 42.5 189.091 42.5227V41.1591C188.938 41.1477 188.585 41.1364 188.386 41.1364C187.341 41.1364 186.432 41.7273 186.114 42.5909H186.023V41.2727H184.727V50ZM198.726 50.1818C201.089 50.1818 202.68 48.3864 202.68 45.6818C202.68 42.9545 201.089 41.1591 198.726 41.1591C196.362 41.1591 194.771 42.9545 194.771 45.6818C194.771 48.3864 196.362 50.1818 198.726 50.1818ZM198.726 48.9773C196.93 48.9773 196.112 47.4318 196.112 45.6818C196.112 43.9318 196.93 42.3636 198.726 42.3636C200.521 42.3636 201.339 43.9318 201.339 45.6818C201.339 47.4318 200.521 48.9773 198.726 48.9773ZM208.614 41.2727H206.659V40.3864C206.659 39.5227 207.023 39.0682 207.909 39.0682C208.295 39.0682 208.523 39.1591 208.659 39.2045L209.045 38.0455C208.841 37.9545 208.432 37.8182 207.773 37.8182C206.523 37.8182 205.318 38.5682 205.318 40.0682V41.2727H203.909V42.4091H205.318V50H206.659V42.4091H208.614V41.2727ZM216.584 38.3636H215.175V50H216.584V38.3636ZM220.568 44.75C220.568 43.2273 221.511 42.3636 222.795 42.3636C224.04 42.3636 224.795 43.1761 224.795 44.5455V50H226.136V44.4545C226.136 42.2273 224.949 41.1591 223.182 41.1591C221.864 41.1591 221.045 41.75 220.636 42.6364H220.523V41.2727H219.227V50H220.568V44.75ZM235.411 41.2727H233.956L231.547 48.2273H231.456L229.047 41.2727H227.592L230.82 50H232.183L235.411 41.2727ZM240.527 50.1818C242.3 50.1818 243.595 49.2955 244.004 47.9773L242.709 47.6136C242.368 48.5227 241.578 48.9773 240.527 48.9773C238.953 48.9773 237.868 47.9602 237.805 46.0909H244.141V45.5227C244.141 42.2727 242.209 41.1591 240.391 41.1591C238.027 41.1591 236.459 43.0227 236.459 45.7045C236.459 48.3864 238.004 50.1818 240.527 50.1818ZM237.805 44.9318C237.896 43.5739 238.857 42.3636 240.391 42.3636C241.845 42.3636 242.777 43.4545 242.777 44.9318H237.805ZM252.362 43.2273C251.942 41.9886 250.999 41.1591 249.271 41.1591C247.43 41.1591 246.067 42.2045 246.067 43.6818C246.067 44.8864 246.783 45.6932 248.385 46.0682L249.839 46.4091C250.72 46.6136 251.135 47.0341 251.135 47.6364C251.135 48.3864 250.339 49 249.089 49C247.993 49 247.305 48.5284 247.067 47.5909L245.794 47.9091C246.107 49.392 247.328 50.1818 249.112 50.1818C251.141 50.1818 252.521 49.0739 252.521 47.5682C252.521 46.3523 251.76 45.5852 250.203 45.2045L248.908 44.8864C247.874 44.6307 247.408 44.2841 247.408 43.6136C247.408 42.8636 248.203 42.3182 249.271 42.3182C250.442 42.3182 250.925 42.9659 251.158 43.5682L252.362 43.2273ZM258.335 41.2727H256.472V39.1818H255.131V41.2727H253.812V42.4091H255.131V47.8636C255.131 49.3864 256.358 50.1136 257.494 50.1136C257.994 50.1136 258.312 50.0227 258.494 49.9545L258.222 48.75C258.108 48.7727 257.926 48.8182 257.631 48.8182C257.04 48.8182 256.472 48.6364 256.472 47.5V42.4091H258.335V41.2727ZM260.352 50H261.693V44.5455C261.693 43.267 262.625 42.3636 263.67 42.3636C264.688 42.3636 265.398 43.0284 265.398 44.0227V50H266.761V44.3182C266.761 43.1932 267.466 42.3636 268.693 42.3636C269.648 42.3636 270.466 42.8693 270.466 44.1591V50H271.807V44.1591C271.807 42.108 270.705 41.1591 269.148 41.1591C267.898 41.1591 266.983 41.733 266.534 42.6364H266.443C266.011 41.7045 265.25 41.1591 264.102 41.1591C262.966 41.1591 262.125 41.7045 261.761 42.6364H261.648V41.2727H260.352V50ZM277.918 50.1818C279.69 50.1818 280.986 49.2955 281.395 47.9773L280.099 47.6136C279.759 48.5227 278.969 48.9773 277.918 48.9773C276.344 48.9773 275.259 47.9602 275.196 46.0909H281.531V45.5227C281.531 42.2727 279.599 41.1591 277.781 41.1591C275.418 41.1591 273.849 43.0227 273.849 45.7045C273.849 48.3864 275.395 50.1818 277.918 50.1818ZM275.196 44.9318C275.287 43.5739 276.247 42.3636 277.781 42.3636C279.236 42.3636 280.168 43.4545 280.168 44.9318H275.196ZM284.912 44.75C284.912 43.2273 285.855 42.3636 287.139 42.3636C288.384 42.3636 289.139 43.1761 289.139 44.5455V50H290.48V44.4545C290.48 42.2273 289.293 41.1591 287.526 41.1591C286.207 41.1591 285.389 41.75 284.98 42.6364H284.866V41.2727H283.571V50H284.912V44.75ZM296.726 41.2727H294.862V39.1818H293.521V41.2727H292.203V42.4091H293.521V47.8636C293.521 49.3864 294.749 50.1136 295.885 50.1136C296.385 50.1136 296.703 50.0227 296.885 49.9545L296.612 48.75C296.499 48.7727 296.317 48.8182 296.021 48.8182C295.43 48.8182 294.862 48.6364 294.862 47.5V42.4091H296.726V41.2727ZM304.768 43.2273C304.348 41.9886 303.405 41.1591 301.678 41.1591C299.837 41.1591 298.473 42.2045 298.473 43.6818C298.473 44.8864 299.189 45.6932 300.791 46.0682L302.246 46.4091C303.126 46.6136 303.541 47.0341 303.541 47.6364C303.541 48.3864 302.746 49 301.496 49C300.399 49 299.712 48.5284 299.473 47.5909L298.2 47.9091C298.513 49.392 299.734 50.1818 301.518 50.1818C303.547 50.1818 304.928 49.0739 304.928 47.5682C304.928 46.3523 304.166 45.5852 302.609 45.2045L301.314 44.8864C300.28 44.6307 299.814 44.2841 299.814 43.6136C299.814 42.8636 300.609 42.3182 301.678 42.3182C302.848 42.3182 303.331 42.9659 303.564 43.5682L304.768 43.2273Z" fill="#718EBF"/>
<circle cx="79" cy="60" r="35" fill="#FFE0EB"/>
<g clip-path="url(#clip0_112_265)">
<path d="M79.8787 60.8783V45C71.3736 45.4461 64.4466 52.3731 64.0005 60.8783H79.8787ZM76.3633 58.2416H74.6055V56.4839H76.3633V58.2416ZM71.09 52.9684H72.8478V54.7262H71.09V52.9684ZM75.4844 52.6045L76.7272 53.8473L71.9689 58.6056L70.7261 57.3628L75.4844 52.6045Z" fill="#FF82AC"/>
<path d="M79.8787 62.636H69.3657C69.794 68.2371 74.2776 72.7207 79.8787 73.149V62.636H79.8787Z" fill="#FF82AC"/>
<path d="M81.6362 48.5155C81.6362 48.7043 81.6362 75.2063 81.6362 74.9988C88.4956 74.5432 93.999 68.6423 93.999 61.6694C93.999 54.6959 88.4973 48.9695 81.6362 48.5155ZM86.9095 60.8783C88.3633 60.8783 89.5461 62.061 89.5461 63.5149C89.5461 64.6592 88.8091 65.6256 87.7883 65.9896V67.9092H86.0306V65.9896C85.0098 65.6256 84.2728 64.6592 84.2728 63.5149H86.0306C86.0306 63.9998 86.4246 64.3938 86.9095 64.3938C87.3944 64.3938 87.7883 63.9998 87.7883 63.5149C87.7883 63.03 87.3944 62.636 86.9095 62.636C85.4556 62.636 84.2728 61.4533 84.2728 59.9994C84.2728 58.8551 85.0098 57.8887 86.0306 57.5247V55.6051H87.7883V57.5247C88.8091 57.8887 89.5461 58.8551 89.5461 59.9994H87.7883C87.7883 59.5145 87.3944 59.1205 86.9095 59.1205C86.4246 59.1205 86.0306 59.5145 86.0306 59.9994C86.0306 60.4843 86.4246 60.8783 86.9095 60.8783Z" fill="#FF82AC"/>
</g>
<defs>
<clipPath id="clip0_112_265">
<rect width="30" height="30" fill="white" transform="translate(64 45)"/>
</clipPath>
</defs>
</svg>
