<svg width="255" height="120" viewBox="0 0 255 120" fill="none" xmlns="http://www.w3.org/2000/svg">
<rect width="255" height="120" rx="25" fill="white"/>
<path d="M131.2 84.2727H133.082L133.091 82.2397C136.9 81.9645 139.083 79.8693 139.092 76.8952C139.083 73.7436 136.482 72.3054 133.748 71.6573L133.162 71.5064L133.197 66.4371C134.618 66.6857 135.532 67.538 135.674 68.8164H138.844C138.79 65.9933 136.571 63.9336 133.215 63.614L133.224 61.5455H131.342L131.333 63.614C128.004 63.9513 125.607 65.9933 125.616 68.9318C125.616 71.5419 127.471 73.0423 130.463 73.8146L131.262 74.0188L131.227 79.3899C129.637 79.1413 128.492 78.2358 128.377 76.6289H125.136C125.261 79.9581 127.551 81.9379 131.209 82.2397L131.2 84.2727ZM133.109 79.3899L133.144 74.516C134.76 74.9865 135.79 75.608 135.799 76.8686C135.79 78.1825 134.733 79.1236 133.109 79.3899ZM131.28 71.027C130.055 70.6364 128.936 69.9883 128.954 68.7276C128.963 67.5824 129.824 66.6946 131.315 66.4371L131.28 71.027ZM142.517 82H145.935L153.659 66.6325V63.8182H141.274V66.5703H150.25V66.6946L142.517 82ZM157.208 79.5142H154.367L154.305 80.5085C154.154 82.9144 153.523 85.3647 153.266 86.4389H155.432C155.858 85.3203 156.844 82.728 157.092 80.4908L157.208 79.5142ZM166.791 63.5696C162.849 63.543 160.23 66.2507 160.23 69.8018C160.239 73.2287 162.681 75.7056 165.868 75.7056C167.83 75.7056 169.534 74.7557 170.413 73.1932H170.538C170.529 77.0817 169.117 79.3988 166.605 79.3988C165.033 79.3988 163.977 78.4933 163.648 77.0462H160.408C160.781 80.0558 163.16 82.2486 166.605 82.2486C170.964 82.2486 173.743 78.6087 173.734 72.3498C173.725 65.7269 170.28 63.5874 166.791 63.5696ZM166.8 66.233C168.744 66.233 170.174 67.8487 170.174 69.7042C170.183 71.5863 168.682 73.2021 166.765 73.2021C164.829 73.2021 163.435 71.6751 163.426 69.7308C163.426 67.7777 164.874 66.233 166.8 66.233ZM176.69 82H189.154V79.2479H181.235V79.1236L184.369 75.9364C187.903 72.5451 188.879 70.8938 188.879 68.843C188.879 65.7979 186.402 63.5696 182.745 63.5696C179.14 63.5696 176.583 65.8068 176.583 69.2603H179.717C179.717 67.4048 180.889 66.2418 182.7 66.2418C184.431 66.2418 185.719 67.2983 185.719 69.0117C185.719 70.5298 184.795 71.6129 183.002 73.4329L176.69 79.6207V82ZM198.938 82.3462C203.324 82.3551 205.942 78.8928 205.942 72.9268C205.942 66.9964 203.306 63.5696 198.938 63.5696C194.57 63.5696 191.942 66.9876 191.933 72.9268C191.933 78.8839 194.552 82.3462 198.938 82.3462ZM198.938 79.5675C196.674 79.5675 195.254 77.2947 195.262 72.9268C195.271 68.5945 196.683 66.3129 198.938 66.3129C201.202 66.3129 202.613 68.5945 202.622 72.9268C202.622 77.2947 201.211 79.5675 198.938 79.5675Z" fill="#232323"/>
<path d="M124.773 36.6136H128.432V47H129.841V36.6136H133.5V35.3636H124.773V36.6136ZM137.773 47.1818C140.136 47.1818 141.727 45.3864 141.727 42.6818C141.727 39.9545 140.136 38.1591 137.773 38.1591C135.409 38.1591 133.818 39.9545 133.818 42.6818C133.818 45.3864 135.409 47.1818 137.773 47.1818ZM137.773 45.9773C135.977 45.9773 135.159 44.4318 135.159 42.6818C135.159 40.9318 135.977 39.3636 137.773 39.3636C139.568 39.3636 140.386 40.9318 140.386 42.6818C140.386 44.4318 139.568 45.9773 137.773 45.9773ZM147.57 38.2727H145.706V36.1818H144.365V38.2727H143.047V39.4091H144.365V44.8636C144.365 46.3864 145.592 47.1136 146.729 47.1136C147.229 47.1136 147.547 47.0227 147.729 46.9545L147.456 45.75C147.342 45.7727 147.161 45.8182 146.865 45.8182C146.274 45.8182 145.706 45.6364 145.706 44.5V39.4091H147.57V38.2727ZM152.155 47.2045C153.678 47.2045 154.473 46.3864 154.746 45.8182H154.814V47H156.155V41.25C156.155 38.4773 154.041 38.1591 152.928 38.1591C151.609 38.1591 150.109 38.6136 149.428 40.2045L150.7 40.6591C150.996 40.0227 151.695 39.3409 152.973 39.3409C154.206 39.3409 154.814 39.9943 154.814 41.1136V41.1591C154.814 41.8068 154.155 41.75 152.564 41.9545C150.945 42.1648 149.178 42.5227 149.178 44.5227C149.178 46.2273 150.496 47.2045 152.155 47.2045ZM152.359 46C151.291 46 150.518 45.5227 150.518 44.5909C150.518 43.5682 151.45 43.25 152.496 43.1136C153.064 43.0455 154.587 42.8864 154.814 42.6136V43.8409C154.814 44.9318 153.95 46 152.359 46ZM159.943 35.3636H158.602V47H159.943V35.3636ZM173.445 38.2727H174.808C174.746 36.517 173.126 35.2045 170.876 35.2045C168.649 35.2045 166.899 36.5 166.899 38.4545C166.899 40.0227 168.036 40.9545 169.854 41.4773L171.286 41.8864C172.513 42.2273 173.604 42.6591 173.604 43.8182C173.604 45.0909 172.376 45.9318 170.763 45.9318C169.376 45.9318 168.149 45.3182 168.036 44H166.581C166.717 45.9091 168.263 47.2045 170.763 47.2045C173.445 47.2045 174.967 45.7273 174.967 43.8409C174.967 41.6591 172.899 40.9545 171.695 40.6364L170.513 40.3182C169.649 40.0909 168.263 39.6364 168.263 38.3864C168.263 37.2727 169.286 36.4545 170.831 36.4545C172.24 36.4545 173.308 37.125 173.445 38.2727ZM179.67 47.2045C181.193 47.2045 181.989 46.3864 182.261 45.8182H182.33V47H183.67V41.25C183.67 38.4773 181.557 38.1591 180.443 38.1591C179.125 38.1591 177.625 38.6136 176.943 40.2045L178.216 40.6591C178.511 40.0227 179.21 39.3409 180.489 39.3409C181.722 39.3409 182.33 39.9943 182.33 41.1136V41.1591C182.33 41.8068 181.67 41.75 180.08 41.9545C178.46 42.1648 176.693 42.5227 176.693 44.5227C176.693 46.2273 178.011 47.2045 179.67 47.2045ZM179.875 46C178.807 46 178.034 45.5227 178.034 44.5909C178.034 43.5682 178.966 43.25 180.011 43.1136C180.58 43.0455 182.102 42.8864 182.33 42.6136V43.8409C182.33 44.9318 181.466 46 179.875 46ZM192.942 38.2727H191.487L189.078 45.2273H188.987L186.578 38.2727H185.124L188.351 47H189.714L192.942 38.2727ZM194.712 47H196.053V38.2727H194.712V47ZM195.393 36.8182C195.916 36.8182 196.348 36.4091 196.348 35.9091C196.348 35.4091 195.916 35 195.393 35C194.871 35 194.439 35.4091 194.439 35.9091C194.439 36.4091 194.871 36.8182 195.393 36.8182ZM199.849 41.75C199.849 40.2273 200.793 39.3636 202.077 39.3636C203.321 39.3636 204.077 40.1761 204.077 41.5455V47H205.418V41.4545C205.418 39.2273 204.23 38.1591 202.463 38.1591C201.145 38.1591 200.327 38.75 199.918 39.6364H199.804V38.2727H198.509V47H199.849V41.75ZM211.391 50.4545C213.482 50.4545 215.163 49.5 215.163 47.25V38.2727H213.868V39.6591H213.732C213.436 39.2045 212.891 38.1591 211.186 38.1591C208.982 38.1591 207.459 39.9091 207.459 42.5909C207.459 45.3182 209.05 46.8636 211.163 46.8636C212.868 46.8636 213.413 45.8636 213.709 45.3864H213.822V47.1591C213.822 48.6136 212.8 49.2727 211.391 49.2727C209.805 49.2727 209.249 48.4375 208.891 47.9545L207.822 48.7045C208.368 49.6193 209.442 50.4545 211.391 50.4545ZM211.345 45.6591C209.663 45.6591 208.8 44.3864 208.8 42.5682C208.8 40.7955 209.641 39.3636 211.345 39.3636C212.982 39.3636 213.845 40.6818 213.845 42.5682C213.845 44.5 212.959 45.6591 211.345 45.6591Z" fill="#718EBF"/>
<circle cx="74" cy="60" r="35" fill="#DCFAF8"/>
<g clip-path="url(#clip0_126_85)">
<path d="M86.9818 59.3653H85.1975C84.7913 58.2291 84.1368 57.2118 83.2991 56.3801L86.0509 55.1654C86.444 54.9918 86.6593 54.5581 86.5475 54.1433C86.2156 52.9118 85.0955 52.0059 83.7648 52.0059H81.4951C80.19 52.0059 79.088 52.8776 78.733 54.0729H76.3359C75.4356 57.3986 72.3946 59.8522 68.7913 59.8522C66.5917 59.8522 64.6018 58.9377 63.1802 57.469C62.7799 58.0403 62.4519 58.6664 62.2102 59.3342C61.4923 59.1771 60.9019 58.6092 60.7369 57.8697C60.6312 57.3959 60.1611 57.0972 59.6876 57.2033C59.2139 57.3091 58.9155 57.7788 59.0213 58.2526C59.2011 59.0581 59.6535 59.7894 60.2951 60.3118C60.7343 60.6693 61.2507 60.9182 61.7978 61.043C61.7552 61.378 61.7332 61.7195 61.7332 62.066V62.9182C61.7332 66.1482 63.6402 68.9303 66.3846 70.191V72.1279C66.3846 73.182 67.2392 74.0366 68.2933 74.0366C69.3475 74.0366 70.2021 73.182 70.2021 72.1279V70.9113H77.3524V72.1279C77.3524 73.182 78.207 74.0366 79.2612 74.0366C80.3154 74.0366 81.1699 73.182 81.1699 72.1279V70.1165C83.1766 69.1404 84.7132 67.3424 85.3467 65.1577H86.9816C88.0964 65.1577 89.0001 64.2498 89.0001 63.1298V61.3931C89.0002 60.2732 88.0965 59.3653 86.9818 59.3653ZM80.4964 59.8727C80.0128 59.8727 79.6207 59.4807 79.6207 58.997C79.6207 58.5133 80.0127 58.1213 80.4964 58.1213C80.9801 58.1213 81.3722 58.5133 81.3722 58.997C81.3722 59.4807 80.9801 59.8727 80.4964 59.8727Z" fill="#16DBCC"/>
<path d="M68.7912 45.9634C65.4507 45.9634 62.7332 48.6844 62.7332 52.0289C62.7332 55.3734 65.4508 58.0944 68.7912 58.0944C72.1317 58.0944 74.8493 55.3734 74.8493 52.0289C74.8493 48.6842 72.1316 45.9634 68.7912 45.9634ZM68.2287 51.1021H69.3538C70.623 51.1021 71.6554 52.1353 71.6554 53.4053C71.6554 54.5678 70.7901 55.5314 69.6702 55.6862V56.0163C69.6702 56.5017 69.2766 56.8953 68.7912 56.8953C68.3059 56.8953 67.9123 56.5017 67.9123 56.0163V55.7085H67.6881C66.7171 55.7085 65.927 54.9181 65.927 53.9465C65.927 53.4611 66.3205 53.0675 66.8059 53.0675C67.2913 53.0675 67.6848 53.4611 67.6848 53.9465L69.3538 53.9507C69.6536 53.9507 69.8976 53.706 69.8976 53.4053C69.8976 53.1046 69.6536 52.8599 69.3538 52.8599H68.2286C66.9595 52.8599 65.927 51.8267 65.927 50.5567C65.927 49.3941 66.7924 48.4305 67.9123 48.2757V48.0414C67.9123 47.556 68.3059 47.1625 68.7912 47.1625C69.2766 47.1625 69.6702 47.556 69.6702 48.0414V48.2534H69.8943C70.8654 48.2534 71.6554 49.0439 71.6554 50.0155C71.6554 50.5009 71.2619 50.8944 70.7765 50.8944C70.2911 50.8944 69.8976 50.5009 69.8976 50.0155C69.8976 50.0141 69.8975 50.0135 69.8975 50.0135L68.2287 50.0112C67.9288 50.0112 67.6849 50.2559 67.6849 50.5567C67.6849 50.8574 67.9288 51.1021 68.2287 51.1021Z" fill="#16DBCC"/>
</g>
<defs>
<clipPath id="clip0_126_85">
<rect width="30" height="30" fill="white" transform="translate(59 45)"/>
</clipPath>
</defs>
</svg>
