<svg width="350" height="120" viewBox="0 0 350 120" fill="none" xmlns="http://www.w3.org/2000/svg">
<rect width="350" height="120" rx="25" fill="white"/>
<path d="M165.339 42.4531H167.875C167.825 39.9957 165.73 38.2557 162.634 38.2557C159.58 38.2557 157.286 39.9744 157.293 42.5455C157.293 44.6335 158.777 45.8338 161.17 46.4517L162.825 46.8778C164.395 47.2756 165.432 47.7656 165.439 48.8949C165.432 50.1378 164.253 50.9688 162.534 50.9688C160.886 50.9688 159.608 50.2301 159.501 48.7031H156.909C157.016 51.5938 159.168 53.2202 162.555 53.2202C166.043 53.2202 168.067 51.4801 168.074 48.9162C168.067 46.3949 165.986 45.2443 163.798 44.7259L162.435 44.3849C161.241 44.1009 159.949 43.5966 159.963 42.3821C159.97 41.2884 160.95 40.4858 162.598 40.4858C164.168 40.4858 165.205 41.2173 165.339 42.4531ZM172.88 46.608C172.88 45.0312 173.86 44.1222 175.238 44.1222C176.588 44.1222 177.383 44.9815 177.383 46.4517V53H179.954V46.054C179.954 43.419 178.463 41.9489 176.197 41.9489C174.521 41.9489 173.456 42.7088 172.951 43.9446H172.824V38.4545H170.309V53H172.88V46.608ZM187.333 53.2131C190.529 53.2131 192.561 50.9616 192.561 47.5881C192.561 44.2074 190.529 41.9489 187.333 41.9489C184.137 41.9489 182.106 44.2074 182.106 47.5881C182.106 50.9616 184.137 53.2131 187.333 53.2131ZM187.348 51.1534C185.579 51.1534 184.713 49.5767 184.713 47.581C184.713 45.5852 185.579 43.9872 187.348 43.9872C189.088 43.9872 189.954 45.5852 189.954 47.581C189.954 49.5767 189.088 51.1534 187.348 51.1534ZM194.743 57.0909H197.314V51.2812H197.42C197.825 52.0767 198.67 53.1918 200.545 53.1918C203.116 53.1918 205.041 51.1534 205.041 47.5597C205.041 43.9233 203.06 41.9489 200.538 41.9489C198.614 41.9489 197.811 43.1065 197.42 43.8949H197.271V42.0909H194.743V57.0909ZM197.264 47.5455C197.264 45.429 198.173 44.0582 199.828 44.0582C201.54 44.0582 202.42 45.5142 202.42 47.5455C202.42 49.5909 201.526 51.0824 199.828 51.0824C198.188 51.0824 197.264 49.6619 197.264 47.5455ZM207.243 57.0909H209.814V51.2812H209.92C210.325 52.0767 211.17 53.1918 213.045 53.1918C215.616 53.1918 217.541 51.1534 217.541 47.5597C217.541 43.9233 215.56 41.9489 213.038 41.9489C211.114 41.9489 210.311 43.1065 209.92 43.8949H209.771V42.0909H207.243V57.0909ZM209.764 47.5455C209.764 45.429 210.673 44.0582 212.328 44.0582C214.04 44.0582 214.92 45.5142 214.92 47.5455C214.92 49.5909 214.026 51.0824 212.328 51.0824C210.688 51.0824 209.764 49.6619 209.764 47.5455ZM219.743 53H222.314V42.0909H219.743V53ZM221.036 40.5426C221.852 40.5426 222.52 39.9176 222.52 39.1506C222.52 38.3764 221.852 37.7514 221.036 37.7514C220.212 37.7514 219.544 38.3764 219.544 39.1506C219.544 39.9176 220.212 40.5426 221.036 40.5426ZM227.529 46.608C227.529 45.0312 228.48 44.1222 229.837 44.1222C231.165 44.1222 231.961 44.9957 231.961 46.4517V53H234.532V46.054C234.539 43.4403 233.047 41.9489 230.796 41.9489C229.162 41.9489 228.04 42.7301 227.543 43.9446H227.415V42.0909H224.958V53H227.529V46.608ZM241.89 57.3182C244.837 57.3182 247.01 55.9688 247.01 53.1776V42.0909H244.475V43.8949H244.333C243.942 43.1065 243.125 41.9489 241.201 41.9489C238.679 41.9489 236.698 43.9233 236.698 47.5099C236.698 51.0682 238.679 52.8438 241.194 52.8438C243.061 52.8438 243.935 51.8423 244.333 51.0398H244.461V53.1065C244.461 54.7116 243.395 55.3722 241.932 55.3722C240.384 55.3722 239.702 54.6406 239.39 54.0014L237.074 54.5625C237.543 56.0895 239.113 57.3182 241.89 57.3182ZM241.911 50.8267C240.213 50.8267 239.319 49.5057 239.319 47.4957C239.319 45.5142 240.199 44.0582 241.911 44.0582C243.566 44.0582 244.475 45.429 244.475 47.4957C244.475 49.5767 243.551 50.8267 241.911 50.8267Z" fill="#232323"/>
<path d="M157.409 81H161.614C164.364 81 165.5 79.6591 165.5 77.9091C165.5 76.0682 164.227 75.0682 163.159 75V74.8864C164.159 74.6136 165.045 73.9545 165.045 72.4545C165.045 70.75 163.909 69.3636 161.477 69.3636H157.409V81ZM158.818 79.75V75.7045H161.682C163.205 75.7045 164.159 76.7273 164.159 77.9091C164.159 78.9318 163.455 79.75 161.614 79.75H158.818ZM158.818 74.4773V70.6136H161.477C163.023 70.6136 163.705 71.4318 163.705 72.4545C163.705 73.6818 162.705 74.4773 161.432 74.4773H158.818ZM173.134 77.4318C173.134 79.0682 171.884 79.8182 170.884 79.8182C169.77 79.8182 168.974 79 168.974 77.7273V72.2727H167.634V77.8182C167.634 80.0455 168.815 81.1136 170.452 81.1136C171.77 81.1136 172.634 80.4091 173.043 79.5227H173.134V81H174.474V72.2727H173.134V77.4318ZM177.794 84.2727C179.004 84.2727 179.857 83.6307 180.362 82.2727L184.078 72.2955L182.612 72.2727L180.203 79.2273H180.112L177.703 72.2727H176.249L179.476 81.0455L179.226 81.7273C178.737 83.0568 178.135 83.1818 177.158 82.9318L176.817 84.1136C176.953 84.1818 177.339 84.2727 177.794 84.2727ZM186.283 81.0909C186.845 81.0909 187.305 80.6307 187.305 80.0682C187.305 79.5057 186.845 79.0455 186.283 79.0455C185.72 79.0455 185.26 79.5057 185.26 80.0682C185.26 80.6307 185.72 81.0909 186.283 81.0909ZM193.757 70.6136H197.416V81H198.825V70.6136H202.484V69.3636H193.757V70.6136ZM205.818 75.75C205.818 74.2273 206.79 73.3636 208.114 73.3636C209.375 73.3636 210.136 74.1591 210.136 75.5455V81H211.477V75.4545C211.477 73.2102 210.284 72.1591 208.5 72.1591C207.125 72.1591 206.341 72.733 205.932 73.6364H205.818V69.3636H204.477V81H205.818V75.75ZM213.93 81H215.271V72.2727H213.93V81ZM214.612 70.8182C215.135 70.8182 215.567 70.4091 215.567 69.9091C215.567 69.4091 215.135 69 214.612 69C214.089 69 213.658 69.4091 213.658 69.9091C213.658 70.4091 214.089 70.8182 214.612 70.8182ZM219.068 75.75C219.068 74.2273 220.011 73.3636 221.295 73.3636C222.54 73.3636 223.295 74.1761 223.295 75.5455V81H224.636V75.4545C224.636 73.2273 223.449 72.1591 221.682 72.1591C220.364 72.1591 219.545 72.75 219.136 73.6364H219.023V72.2727H217.727V81H219.068V75.75ZM227.087 81H228.428V77.733L229.365 76.8636L232.632 81H234.337L230.376 76L234.064 72.2727H232.405L228.587 76.1591H228.428V69.3636H227.087V81ZM236.767 81.0909C237.33 81.0909 237.79 80.6307 237.79 80.0682C237.79 79.5057 237.33 79.0455 236.767 79.0455C236.205 79.0455 235.744 79.5057 235.744 80.0682C235.744 80.6307 236.205 81.0909 236.767 81.0909ZM252.832 73H254.287C253.855 70.75 251.969 69.2045 249.514 69.2045C246.531 69.2045 244.423 71.5 244.423 75.1818C244.423 78.8636 246.514 81.1591 249.605 81.1591C252.378 81.1591 254.355 79.3125 254.355 76.4318V75.1818H249.923V76.4318H252.991C252.952 78.5227 251.577 79.8409 249.605 79.8409C247.446 79.8409 245.787 78.2045 245.787 75.1818C245.787 72.1591 247.446 70.5227 249.514 70.5227C251.196 70.5227 252.338 71.4716 252.832 73ZM256.587 81H257.928V75.4773C257.928 74.2955 258.859 73.4318 260.132 73.4318C260.49 73.4318 260.859 73.5 260.95 73.5227V72.1591C260.797 72.1477 260.445 72.1364 260.246 72.1364C259.2 72.1364 258.291 72.7273 257.973 73.5909H257.882V72.2727H256.587V81ZM265.82 81.1818C268.183 81.1818 269.774 79.3864 269.774 76.6818C269.774 73.9545 268.183 72.1591 265.82 72.1591C263.456 72.1591 261.865 73.9545 261.865 76.6818C261.865 79.3864 263.456 81.1818 265.82 81.1818ZM265.82 79.9773C264.024 79.9773 263.206 78.4318 263.206 76.6818C263.206 74.9318 264.024 73.3636 265.82 73.3636C267.615 73.3636 268.433 74.9318 268.433 76.6818C268.433 78.4318 267.615 79.9773 265.82 79.9773ZM273.501 81H274.82L276.729 74.2955H276.865L278.774 81H280.092L282.751 72.2727H281.342L279.456 78.9318H279.365L277.524 72.2727H276.092L274.229 78.9545H274.138L272.251 72.2727H270.842L273.501 81ZM284.314 81.0909C284.876 81.0909 285.337 80.6307 285.337 80.0682C285.337 79.5057 284.876 79.0455 284.314 79.0455C283.751 79.0455 283.291 79.5057 283.291 80.0682C283.291 80.6307 283.751 81.0909 284.314 81.0909Z" fill="#718EBF"/>
<circle cx="99" cy="60" r="35" fill="#FFF5D9"/>
<path d="M109.97 70.9125L108.37 53.3531C108.327 52.8694 107.922 52.5 107.436 52.5H104.624V50.625C104.624 49.1175 104.039 47.7037 102.98 46.6444C101.937 45.6 100.486 45 98.9989 45C95.8976 45 93.3739 47.5237 93.3739 50.625V52.5H90.5614C90.0758 52.5 89.6708 52.8694 89.6276 53.3531L88.032 70.9106C87.9364 71.9587 88.2889 73.0031 88.9976 73.7794C89.7064 74.5556 90.7151 75 91.767 75H106.233C107.283 75 108.291 74.5556 109 73.7812C109.711 73.005 110.061 71.9587 109.97 70.9125ZM102.749 52.5H95.2489V50.625C95.2489 48.5569 96.9308 46.875 98.9989 46.875C99.9926 46.875 100.96 47.2725 101.654 47.9681C102.361 48.675 102.749 49.6181 102.749 50.625V52.5Z" fill="#FFBB38"/>
</svg>
