<svg width="350" height="120" viewBox="0 0 350 120" fill="none" xmlns="http://www.w3.org/2000/svg">
<rect width="350" height="120" rx="25" fill="white"/>
<path d="M164.339 42.4531H166.875C166.825 39.9957 164.73 38.2557 161.634 38.2557C158.58 38.2557 156.286 39.9744 156.293 42.5455C156.293 44.6335 157.777 45.8338 160.17 46.4517L161.825 46.8778C163.395 47.2756 164.432 47.7656 164.439 48.8949C164.432 50.1378 163.253 50.9688 161.534 50.9688C159.886 50.9688 158.608 50.2301 158.501 48.7031H155.909C156.016 51.5938 158.168 53.2202 161.555 53.2202C165.043 53.2202 167.067 51.4801 167.074 48.9162C167.067 46.3949 164.986 45.2443 162.798 44.7259L161.435 44.3849C160.241 44.1009 158.949 43.5966 158.963 42.3821C158.97 41.2884 159.95 40.4858 161.598 40.4858C163.168 40.4858 164.205 41.2173 164.339 42.4531ZM172.449 53.2202C174.16 53.2202 175.183 52.4176 175.652 51.5014H175.737V53H178.208V45.6989C178.208 42.8153 175.858 41.9489 173.777 41.9489C171.483 41.9489 169.721 42.9716 169.153 44.9602L171.554 45.3011C171.809 44.5554 172.534 43.9162 173.791 43.9162C174.984 43.9162 175.637 44.527 175.637 45.5994V45.642C175.637 46.3807 174.863 46.4162 172.939 46.6222C170.822 46.8494 168.798 47.4815 168.798 49.9389C168.798 52.0838 170.368 53.2202 172.449 53.2202ZM173.116 51.331C172.044 51.331 171.277 50.8409 171.277 49.8963C171.277 48.9091 172.136 48.4972 173.287 48.3338C173.961 48.2415 175.311 48.071 175.645 47.8011V49.0866C175.645 50.3011 174.664 51.331 173.116 51.331ZM186.319 42.0909H184.054V41.2315C184.054 40.3793 184.409 39.9034 185.368 39.9034C185.772 39.9034 186.113 39.9957 186.326 40.0597L186.845 38.071C186.511 37.9574 185.779 37.7727 184.892 37.7727C182.995 37.7727 181.483 38.8594 181.483 41.0611V42.0909H179.87V44.0795H181.483V53H184.054V44.0795H186.319V42.0909ZM192.752 53.2131C195.295 53.2131 197.042 51.9702 197.496 50.0739L195.096 49.804C194.748 50.7273 193.896 51.2102 192.788 51.2102C191.126 51.2102 190.025 50.1165 190.004 48.2486H197.603V47.4602C197.603 43.6321 195.302 41.9489 192.617 41.9489C189.492 41.9489 187.454 44.2429 187.454 47.6094C187.454 51.0327 189.464 53.2131 192.752 53.2131ZM190.011 46.5156C190.089 45.1236 191.119 43.9517 192.653 43.9517C194.13 43.9517 195.124 45.0312 195.138 46.5156H190.011ZM205.225 42.0909H203.074V39.4773H200.502V42.0909H198.954V44.0795H200.502V50.1449C200.488 52.1974 201.98 53.206 203.912 53.1491C204.643 53.1278 205.147 52.9858 205.424 52.8935L204.991 50.8835C204.849 50.919 204.558 50.983 204.238 50.983C203.592 50.983 203.074 50.7557 203.074 49.7188V44.0795H205.225V42.0909ZM208.974 57.0909C210.977 57.0909 212.134 56.0611 212.752 54.321L217.134 42.1051L214.386 42.0909L211.864 50.3295H211.751L209.237 42.0909H206.509L210.465 53.2273L210.245 53.8168C209.769 55.0597 209.016 55.1449 207.894 54.8182L207.298 56.821C207.646 56.9631 208.271 57.0909 208.974 57.0909Z" fill="#232323"/>
<path d="M158.523 81H159.977L162.545 71.7273H162.636L165.205 81H166.659L169.841 69.3636H168.409L165.977 78.8409H165.864L163.386 69.3636H161.795L159.318 78.8409H159.205L156.773 69.3636H155.341L158.523 81ZM174.261 81.1818C176.034 81.1818 177.33 80.2955 177.739 78.9773L176.443 78.6136C176.102 79.5227 175.312 79.9773 174.261 79.9773C172.688 79.9773 171.602 78.9602 171.54 77.0909H177.875V76.5227C177.875 73.2727 175.943 72.1591 174.125 72.1591C171.761 72.1591 170.193 74.0227 170.193 76.7045C170.193 79.3864 171.739 81.1818 174.261 81.1818ZM171.54 75.9318C171.631 74.5739 172.591 73.3636 174.125 73.3636C175.58 73.3636 176.511 74.4545 176.511 75.9318H171.54ZM186.983 81.2045C188.506 81.2045 189.301 80.3864 189.574 79.8182H189.642V81H190.983V75.25C190.983 72.4773 188.869 72.1591 187.756 72.1591C186.438 72.1591 184.938 72.6136 184.256 74.2045L185.528 74.6591C185.824 74.0227 186.523 73.3409 187.801 73.3409C189.034 73.3409 189.642 73.9943 189.642 75.1136V75.1591C189.642 75.8068 188.983 75.75 187.392 75.9545C185.773 76.1648 184.006 76.5227 184.006 78.5227C184.006 80.2273 185.324 81.2045 186.983 81.2045ZM187.188 80C186.119 80 185.347 79.5227 185.347 78.5909C185.347 77.5682 186.278 77.25 187.324 77.1136C187.892 77.0455 189.415 76.8864 189.642 76.6136V77.8409C189.642 78.9318 188.778 80 187.188 80ZM193.43 81H194.771V75.4773C194.771 74.2955 195.703 73.4318 196.976 73.4318C197.334 73.4318 197.703 73.5 197.794 73.5227V72.1591C197.641 72.1477 197.288 72.1364 197.089 72.1364C196.044 72.1364 195.135 72.7273 194.817 73.5909H194.726V72.2727H193.43V81ZM202.777 81.1818C204.55 81.1818 205.845 80.2955 206.254 78.9773L204.959 78.6136C204.618 79.5227 203.828 79.9773 202.777 79.9773C201.203 79.9773 200.118 78.9602 200.055 77.0909H206.391V76.5227C206.391 73.2727 204.459 72.1591 202.641 72.1591C200.277 72.1591 198.709 74.0227 198.709 76.7045C198.709 79.3864 200.254 81.1818 202.777 81.1818ZM200.055 75.9318C200.146 74.5739 201.107 73.3636 202.641 73.3636C204.095 73.3636 205.027 74.4545 205.027 75.9318H200.055ZM213.794 84.2727C215.004 84.2727 215.857 83.6307 216.362 82.2727L220.078 72.2955L218.612 72.2727L216.203 79.2273H216.112L213.703 72.2727H212.249L215.476 81.0455L215.226 81.7273C214.737 83.0568 214.135 83.1818 213.158 82.9318L212.817 84.1136C212.953 84.1818 213.339 84.2727 213.794 84.2727ZM225.085 81.1818C227.449 81.1818 229.04 79.3864 229.04 76.6818C229.04 73.9545 227.449 72.1591 225.085 72.1591C222.722 72.1591 221.131 73.9545 221.131 76.6818C221.131 79.3864 222.722 81.1818 225.085 81.1818ZM225.085 79.9773C223.29 79.9773 222.472 78.4318 222.472 76.6818C222.472 74.9318 223.29 73.3636 225.085 73.3636C226.881 73.3636 227.699 74.9318 227.699 76.6818C227.699 78.4318 226.881 79.9773 225.085 79.9773ZM236.587 77.4318C236.587 79.0682 235.337 79.8182 234.337 79.8182C233.223 79.8182 232.428 79 232.428 77.7273V72.2727H231.087V77.8182C231.087 80.0455 232.268 81.1136 233.905 81.1136C235.223 81.1136 236.087 80.4091 236.496 79.5227H236.587V81H237.928V72.2727H236.587V77.4318ZM240.384 81H241.724V75.4773C241.724 74.2955 242.656 73.4318 243.929 73.4318C244.287 73.4318 244.656 73.5 244.747 73.5227V72.1591C244.594 72.1477 244.241 72.1364 244.043 72.1364C242.997 72.1364 242.088 72.7273 241.77 73.5909H241.679V72.2727H240.384V81ZM253.405 81.2045C254.928 81.2045 255.723 80.3864 255.996 79.8182H256.064V81H257.405V75.25C257.405 72.4773 255.291 72.1591 254.178 72.1591C252.859 72.1591 251.359 72.6136 250.678 74.2045L251.95 74.6591C252.246 74.0227 252.945 73.3409 254.223 73.3409C255.456 73.3409 256.064 73.9943 256.064 75.1136V75.1591C256.064 75.8068 255.405 75.75 253.814 75.9545C252.195 76.1648 250.428 76.5227 250.428 78.5227C250.428 80.2273 251.746 81.2045 253.405 81.2045ZM253.609 80C252.541 80 251.768 79.5227 251.768 78.5909C251.768 77.5682 252.7 77.25 253.746 77.1136C254.314 77.0455 255.837 76.8864 256.064 76.6136V77.8409C256.064 78.9318 255.2 80 253.609 80ZM261.193 69.3636H259.852V81H261.193V69.3636ZM264.99 69.3636H263.649V81H264.99V69.3636ZM267.446 81H268.787V72.2727H267.446V81ZM268.128 70.8182C268.651 70.8182 269.082 70.4091 269.082 69.9091C269.082 69.4091 268.651 69 268.128 69C267.605 69 267.173 69.4091 267.173 69.9091C267.173 70.4091 267.605 70.8182 268.128 70.8182ZM274.902 81.1818C276.675 81.1818 277.97 80.2955 278.379 78.9773L277.084 78.6136C276.743 79.5227 275.953 79.9773 274.902 79.9773C273.328 79.9773 272.243 78.9602 272.18 77.0909H278.516V76.5227C278.516 73.2727 276.584 72.1591 274.766 72.1591C272.402 72.1591 270.834 74.0227 270.834 76.7045C270.834 79.3864 272.379 81.1818 274.902 81.1818ZM272.18 75.9318C272.271 74.5739 273.232 73.3636 274.766 73.3636C276.22 73.3636 277.152 74.4545 277.152 75.9318H272.18ZM286.737 74.2273C286.317 72.9886 285.374 72.1591 283.646 72.1591C281.805 72.1591 280.442 73.2045 280.442 74.6818C280.442 75.8864 281.158 76.6932 282.76 77.0682L284.214 77.4091C285.095 77.6136 285.51 78.0341 285.51 78.6364C285.51 79.3864 284.714 80 283.464 80C282.368 80 281.68 79.5284 281.442 78.5909L280.169 78.9091C280.482 80.392 281.703 81.1818 283.487 81.1818C285.516 81.1818 286.896 80.0739 286.896 78.5682C286.896 77.3523 286.135 76.5852 284.578 76.2045L283.283 75.8864C282.249 75.6307 281.783 75.2841 281.783 74.6136C281.783 73.8636 282.578 73.3182 283.646 73.3182C284.817 73.3182 285.3 73.9659 285.533 74.5682L286.737 74.2273Z" fill="#718EBF"/>
<circle cx="98" cy="60" r="35" fill="#DCFAF8"/>
<g clip-path="url(#clip0_112_1130)">
<path d="M109.483 65.0338C108.677 67.2192 107.457 69.1193 105.858 70.681C104.038 72.4585 101.654 73.8709 98.7734 74.8785C98.6789 74.9114 98.5802 74.9384 98.4811 74.9584C98.3502 74.9842 98.217 74.9982 98.0849 75H98.0591C97.9183 75 97.7768 74.9858 97.6365 74.9584C97.5374 74.9384 97.4402 74.9114 97.3461 74.8792C94.4619 73.8732 92.0754 72.4615 90.2533 70.684C88.6534 69.1223 87.4341 67.2233 86.6289 65.0379C85.1648 61.0645 85.2481 56.6874 85.3151 53.1699L85.3163 53.1159C85.3298 52.8255 85.3385 52.5204 85.3433 52.1834C85.3678 50.5293 86.6829 49.1608 88.3373 49.0686C91.7865 48.8761 94.4548 47.7511 96.7347 45.5289L96.7547 45.5106C97.1332 45.1634 97.6102 44.9931 98.0849 45.0002C98.5427 45.0062 98.9986 45.1762 99.3637 45.5106L99.3831 45.5289C101.663 47.7511 104.332 48.8761 107.781 49.0686C109.435 49.1608 110.751 50.5293 110.775 52.1834C110.78 52.5226 110.789 52.8273 110.802 53.1159L110.803 53.1388C110.87 56.6629 110.952 61.0487 109.483 65.0338Z" fill="#16DBCC"/>
<path d="M109.483 65.0338C108.677 67.2192 107.457 69.1194 105.858 70.681C104.038 72.4585 101.654 73.871 98.7734 74.8785C98.6789 74.9115 98.5803 74.9385 98.4812 74.9584C98.3502 74.9842 98.217 74.9982 98.085 75V45.0002C98.5427 45.0062 98.9987 45.1763 99.3637 45.5107L99.3832 45.529C101.664 47.7512 104.332 48.8761 107.781 49.0686C109.435 49.1609 110.751 50.5293 110.775 52.1835C110.78 52.5227 110.789 52.8273 110.802 53.1159L110.803 53.1388C110.87 56.6629 110.952 61.0488 109.483 65.0338Z" fill="#16DBCC"/>
<path d="M105.536 60C105.536 64.1137 102.195 67.4622 98.0852 67.4769H98.0589C93.9365 67.4769 90.582 64.1226 90.582 60C90.582 55.8776 93.9365 52.5233 98.0589 52.5233H98.0852C102.195 52.538 105.536 55.8865 105.536 60Z" fill="white"/>
<path d="M102.653 58.7963L98.1146 62.8221L97.134 63.6919C96.9024 63.8974 96.5986 64 96.295 64C95.9912 64 95.6877 63.8974 95.4557 63.6919L93.3475 61.821C92.8842 61.41 92.8842 60.7444 93.3475 60.3331C93.8101 59.9222 94.5615 59.9222 95.0248 60.3331L96.295 61.4598L100.975 57.3084C101.438 56.8972 102.19 56.8972 102.653 57.3084C103.116 57.7194 103.116 58.3859 102.653 58.7963Z" fill="#16DBCC"/>
</g>
<defs>
<clipPath id="clip0_112_1130">
<rect width="30" height="30" fill="white" transform="translate(83 45)"/>
</clipPath>
</defs>
</svg>
