<svg width="350" height="120" viewBox="0 0 350 120" fill="none" xmlns="http://www.w3.org/2000/svg">
<rect width="350" height="120" rx="25" fill="white"/>
<path d="M145.435 53H154.476V50.7912H148.07V38.4545H145.435V53ZM156.649 53H159.22V42.0909H156.649V53ZM157.942 40.5426C158.759 40.5426 159.426 39.9176 159.426 39.1506C159.426 38.3764 158.759 37.7514 157.942 37.7514C157.118 37.7514 156.45 38.3764 156.45 39.1506C156.45 39.9176 157.118 40.5426 157.942 40.5426ZM167.39 42.0909H165.124V41.2315C165.124 40.3793 165.479 39.9034 166.438 39.9034C166.843 39.9034 167.184 39.9957 167.397 40.0597L167.915 38.071C167.581 37.9574 166.85 37.7727 165.962 37.7727C164.066 37.7727 162.553 38.8594 162.553 41.0611V42.0909H160.941V44.0795H162.553V53H165.124V44.0795H167.39V42.0909ZM173.822 53.2131C176.365 53.2131 178.112 51.9702 178.567 50.0739L176.166 49.804C175.818 50.7273 174.966 51.2102 173.858 51.2102C172.196 51.2102 171.095 50.1165 171.074 48.2486H178.673V47.4602C178.673 43.6321 176.372 41.9489 173.688 41.9489C170.562 41.9489 168.524 44.2429 168.524 47.6094C168.524 51.0327 170.534 53.2131 173.822 53.2131ZM171.081 46.5156C171.159 45.1236 172.189 43.9517 173.723 43.9517C175.2 43.9517 176.195 45.0312 176.209 46.5156H171.081ZM188.558 38.4545H185.923V53H188.558V38.4545ZM193.869 46.608C193.869 45.0312 194.82 44.1222 196.177 44.1222C197.505 44.1222 198.3 44.9957 198.3 46.4517V53H200.871V46.054C200.879 43.4403 199.387 41.9489 197.136 41.9489C195.502 41.9489 194.38 42.7301 193.883 43.9446H193.755V42.0909H191.298V53H193.869V46.608ZM212.107 44.9744C211.752 43.1278 210.275 41.9489 207.718 41.9489C205.09 41.9489 203.3 43.2415 203.308 45.2585C203.3 46.8494 204.281 47.9006 206.376 48.3338L208.237 48.7244C209.238 48.9446 209.707 49.3494 209.707 49.9673C209.707 50.7131 208.897 51.2741 207.675 51.2741C206.496 51.2741 205.729 50.7628 205.509 49.7827L203.002 50.0241C203.322 52.027 205.005 53.2131 207.683 53.2131C210.41 53.2131 212.335 51.7997 212.342 49.733C212.335 48.1776 211.333 47.2259 209.273 46.7784L207.413 46.3807C206.305 46.1321 205.864 45.7486 205.871 45.1165C205.864 44.3778 206.681 43.8665 207.754 43.8665C208.94 43.8665 209.565 44.5128 209.763 45.2301L212.107 44.9744ZM221.415 48.4119C221.415 50.0739 220.229 50.8977 219.092 50.8977C217.857 50.8977 217.033 50.0241 217.033 48.6392V42.0909H214.462V49.0369C214.462 51.6577 215.953 53.142 218.098 53.142C219.732 53.142 220.882 52.2827 221.379 51.0611H221.493V53H223.986V42.0909H221.415V48.4119ZM226.63 53H229.201V46.5866C229.201 45.2017 230.245 44.2216 231.658 44.2216C232.091 44.2216 232.631 44.2997 232.851 44.3707V42.0057C232.617 41.9631 232.212 41.9347 231.928 41.9347C230.678 41.9347 229.634 42.6449 229.236 43.9091H229.123V42.0909H226.63V53ZM237.484 53.2202C239.195 53.2202 240.218 52.4176 240.687 51.5014H240.772V53H243.244V45.6989C243.244 42.8153 240.893 41.9489 238.812 41.9489C236.518 41.9489 234.756 42.9716 234.188 44.9602L236.589 45.3011C236.844 44.5554 237.569 43.9162 238.826 43.9162C240.019 43.9162 240.673 44.527 240.673 45.5994V45.642C240.673 46.3807 239.898 46.4162 237.974 46.6222C235.857 46.8494 233.833 47.4815 233.833 49.9389C233.833 52.0838 235.403 53.2202 237.484 53.2202ZM238.151 51.331C237.079 51.331 236.312 50.8409 236.312 49.8963C236.312 48.9091 237.171 48.4972 238.322 48.3338C238.996 48.2415 240.346 48.071 240.68 47.8011V49.0866C240.68 50.3011 239.7 51.331 238.151 51.331ZM248.4 46.608C248.4 45.0312 249.352 44.1222 250.708 44.1222C252.036 44.1222 252.832 44.9957 252.832 46.4517V53H255.403V46.054C255.41 43.4403 253.918 41.9489 251.667 41.9489C250.033 41.9489 248.911 42.7301 248.414 43.9446H248.286V42.0909H245.829V53H248.4V46.608ZM262.775 53.2131C265.516 53.2131 267.263 51.5866 267.448 49.2713H264.991C264.771 50.4432 263.925 51.1179 262.796 51.1179C261.191 51.1179 260.154 49.7756 260.154 47.5455C260.154 45.3438 261.212 44.0227 262.796 44.0227C264.032 44.0227 264.792 44.8182 264.991 45.8693H267.448C267.271 43.5043 265.424 41.9489 262.761 41.9489C259.565 41.9489 257.548 44.2571 257.548 47.5881C257.548 50.8906 259.515 53.2131 262.775 53.2131ZM274.389 53.2131C276.931 53.2131 278.679 51.9702 279.133 50.0739L276.733 49.804C276.385 50.7273 275.532 51.2102 274.424 51.2102C272.762 51.2102 271.662 50.1165 271.64 48.2486H279.24V47.4602C279.24 43.6321 276.939 41.9489 274.254 41.9489C271.129 41.9489 269.091 44.2429 269.091 47.6094C269.091 51.0327 271.1 53.2131 274.389 53.2131ZM271.647 46.5156C271.725 45.1236 272.755 43.9517 274.289 43.9517C275.767 43.9517 276.761 45.0312 276.775 46.5156H271.647Z" fill="#232323"/>
<path d="M153.045 69.3636V76.9545C153.045 78.6591 151.875 79.8864 149.932 79.8864C147.989 79.8864 146.818 78.6591 146.818 76.9545V69.3636H145.409V77.0682C145.409 79.4545 147.193 81.2045 149.932 81.2045C152.67 81.2045 154.455 79.4545 154.455 77.0682V69.3636H153.045ZM158.428 75.75C158.428 74.2273 159.371 73.3636 160.655 73.3636C161.899 73.3636 162.655 74.1761 162.655 75.5455V81H163.996V75.4545C163.996 73.2273 162.808 72.1591 161.041 72.1591C159.723 72.1591 158.905 72.75 158.496 73.6364H158.382V72.2727H157.087V81H158.428V75.75ZM167.787 69.3636H166.446V81H167.787V69.3636ZM170.243 81H171.584V72.2727H170.243V81ZM170.925 70.8182C171.447 70.8182 171.879 70.4091 171.879 69.9091C171.879 69.4091 171.447 69 170.925 69C170.402 69 169.97 69.4091 169.97 69.9091C169.97 70.4091 170.402 70.8182 170.925 70.8182ZM174.04 81H175.381V75.5455C175.381 74.267 176.312 73.3636 177.358 73.3636C178.375 73.3636 179.085 74.0284 179.085 75.0227V81H180.449V75.3182C180.449 74.1932 181.153 73.3636 182.381 73.3636C183.335 73.3636 184.153 73.8693 184.153 75.1591V81H185.494V75.1591C185.494 73.108 184.392 72.1591 182.835 72.1591C181.585 72.1591 180.67 72.733 180.222 73.6364H180.131C179.699 72.7045 178.938 72.1591 177.79 72.1591C176.653 72.1591 175.812 72.7045 175.449 73.6364H175.335V72.2727H174.04V81ZM187.946 81H189.287V72.2727H187.946V81ZM188.628 70.8182C189.151 70.8182 189.582 70.4091 189.582 69.9091C189.582 69.4091 189.151 69 188.628 69C188.105 69 187.673 69.4091 187.673 69.9091C187.673 70.4091 188.105 70.8182 188.628 70.8182ZM195.538 72.2727H193.675V70.1818H192.334V72.2727H191.016V73.4091H192.334V78.8636C192.334 80.3864 193.561 81.1136 194.697 81.1136C195.197 81.1136 195.516 81.0227 195.697 80.9545L195.425 79.75C195.311 79.7727 195.129 79.8182 194.834 79.8182C194.243 79.8182 193.675 79.6364 193.675 78.5V73.4091H195.538V72.2727ZM201.121 81.1818C202.893 81.1818 204.189 80.2955 204.598 78.9773L203.303 78.6136C202.962 79.5227 202.172 79.9773 201.121 79.9773C199.547 79.9773 198.462 78.9602 198.399 77.0909H204.734V76.5227C204.734 73.2727 202.803 72.1591 200.984 72.1591C198.621 72.1591 197.053 74.0227 197.053 76.7045C197.053 79.3864 198.598 81.1818 201.121 81.1818ZM198.399 75.9318C198.49 74.5739 199.45 73.3636 200.984 73.3636C202.439 73.3636 203.371 74.4545 203.371 75.9318H198.399ZM210.07 81.1818C211.751 81.1818 212.32 80.1364 212.615 79.6591H212.774V81H214.07V69.3636H212.729V73.6591H212.615C212.32 73.2045 211.797 72.1591 210.092 72.1591C207.888 72.1591 206.365 73.9091 206.365 76.6591C206.365 79.4318 207.888 81.1818 210.07 81.1818ZM210.251 79.9773C208.57 79.9773 207.706 78.5 207.706 76.6364C207.706 74.7955 208.547 73.3636 210.251 73.3636C211.888 73.3636 212.751 74.6818 212.751 76.6364C212.751 78.6136 211.865 79.9773 210.251 79.9773ZM221.212 84.2727H222.553V79.6591H222.666C222.962 80.1364 223.53 81.1818 225.212 81.1818C227.393 81.1818 228.916 79.4318 228.916 76.6591C228.916 73.9091 227.393 72.1591 225.189 72.1591C223.484 72.1591 222.962 73.2045 222.666 73.6591H222.507V72.2727H221.212V84.2727ZM222.53 76.6364C222.53 74.6818 223.393 73.3636 225.03 73.3636C226.734 73.3636 227.575 74.7955 227.575 76.6364C227.575 78.5 226.712 79.9773 225.03 79.9773C223.416 79.9773 222.53 78.6136 222.53 76.6364ZM230.962 81H232.303V75.4773C232.303 74.2955 233.234 73.4318 234.507 73.4318C234.865 73.4318 235.234 73.5 235.325 73.5227V72.1591C235.172 72.1477 234.82 72.1364 234.621 72.1364C233.575 72.1364 232.666 72.7273 232.348 73.5909H232.257V72.2727H230.962V81ZM240.195 81.1818C242.558 81.1818 244.149 79.3864 244.149 76.6818C244.149 73.9545 242.558 72.1591 240.195 72.1591C237.831 72.1591 236.24 73.9545 236.24 76.6818C236.24 79.3864 237.831 81.1818 240.195 81.1818ZM240.195 79.9773C238.399 79.9773 237.581 78.4318 237.581 76.6818C237.581 74.9318 238.399 73.3636 240.195 73.3636C241.99 73.3636 242.808 74.9318 242.808 76.6818C242.808 78.4318 241.99 79.9773 240.195 79.9773ZM249.991 72.2727H248.128V70.1818H246.787V72.2727H245.469V73.4091H246.787V78.8636C246.787 80.3864 248.014 81.1136 249.151 81.1136C249.651 81.1136 249.969 81.0227 250.151 80.9545L249.878 79.75C249.764 79.7727 249.582 79.8182 249.287 79.8182C248.696 79.8182 248.128 79.6364 248.128 78.5V73.4091H249.991V72.2727ZM255.574 81.1818C257.347 81.1818 258.642 80.2955 259.051 78.9773L257.756 78.6136C257.415 79.5227 256.625 79.9773 255.574 79.9773C254 79.9773 252.915 78.9602 252.852 77.0909H259.188V76.5227C259.188 73.2727 257.256 72.1591 255.438 72.1591C253.074 72.1591 251.506 74.0227 251.506 76.7045C251.506 79.3864 253.051 81.1818 255.574 81.1818ZM252.852 75.9318C252.943 74.5739 253.903 73.3636 255.438 73.3636C256.892 73.3636 257.824 74.4545 257.824 75.9318H252.852ZM264.773 81.1818C266.705 81.1818 267.977 80 268.205 78.4545H266.864C266.614 79.4091 265.818 79.9773 264.773 79.9773C263.182 79.9773 262.159 78.6591 262.159 76.6364C262.159 74.6591 263.205 73.3636 264.773 73.3636C265.955 73.3636 266.659 74.0909 266.864 74.8864H268.205C267.977 73.25 266.591 72.1591 264.75 72.1591C262.386 72.1591 260.818 74.0227 260.818 76.6818C260.818 79.2955 262.318 81.1818 264.773 81.1818ZM273.96 72.2727H272.097V70.1818H270.756V72.2727H269.438V73.4091H270.756V78.8636C270.756 80.3864 271.983 81.1136 273.119 81.1136C273.619 81.1136 273.938 81.0227 274.119 80.9545L273.847 79.75C273.733 79.7727 273.551 79.8182 273.256 79.8182C272.665 79.8182 272.097 79.6364 272.097 78.5V73.4091H273.96V72.2727ZM275.977 81H277.318V72.2727H275.977V81ZM276.659 70.8182C277.182 70.8182 277.614 70.4091 277.614 69.9091C277.614 69.4091 277.182 69 276.659 69C276.136 69 275.705 69.4091 275.705 69.9091C275.705 70.4091 276.136 70.8182 276.659 70.8182ZM283.32 81.1818C285.683 81.1818 287.274 79.3864 287.274 76.6818C287.274 73.9545 285.683 72.1591 283.32 72.1591C280.956 72.1591 279.365 73.9545 279.365 76.6818C279.365 79.3864 280.956 81.1818 283.32 81.1818ZM283.32 79.9773C281.524 79.9773 280.706 78.4318 280.706 76.6818C280.706 74.9318 281.524 73.3636 283.32 73.3636C285.115 73.3636 285.933 74.9318 285.933 76.6818C285.933 78.4318 285.115 79.9773 283.32 79.9773ZM290.662 75.75C290.662 74.2273 291.605 73.3636 292.889 73.3636C294.134 73.3636 294.889 74.1761 294.889 75.5455V81H296.23V75.4545C296.23 73.2273 295.043 72.1591 293.276 72.1591C291.957 72.1591 291.139 72.75 290.73 73.6364H290.616V72.2727H289.321V81H290.662V75.75Z" fill="#718EBF"/>
<circle cx="87" cy="60" r="35" fill="#E7EDFF"/>
<g clip-path="url(#clip0_112_1132)">
<path d="M99.3166 49.0926C95.4204 49.0926 92.4384 48.1162 90.6229 47.297C88.6493 46.4065 87.5851 45.5029 87.5762 45.4953L87.0013 45L86.4255 45.4938C86.415 45.5029 85.3507 46.4066 83.3771 47.297C81.5617 48.1162 78.5797 49.0926 74.6835 49.0926H73.8037V61.169L87 74.9999L100.196 61.1812V49.0926H99.3166ZM96.6773 57.3075C96.6773 58.6718 96.1472 59.9545 95.1844 60.9206L87 69.4225L78.8157 60.9205C77.8528 59.9545 77.3227 58.6717 77.3227 57.3075V56.8501C77.3227 54.0279 79.6188 51.7318 82.441 51.7318C83.7076 51.7318 84.9236 52.1984 85.865 53.0457L86.9681 54.0385L87.7757 53.2309C88.7425 52.2642 90.0278 51.7318 91.3949 51.7318H91.559C94.3812 51.7318 96.6773 54.0278 96.6773 56.8501V57.3075H96.6773Z" fill="#396AFF"/>
<path d="M91.5588 53.4914H91.3948C90.4977 53.4914 89.6542 53.8408 89.0197 54.4751L87.0317 56.4631L84.6878 54.3536C84.0699 53.7975 83.272 53.4913 82.4408 53.4913C80.5888 53.4913 79.082 54.9981 79.082 56.8501V57.3075C79.082 58.2047 79.4314 59.0482 80.0658 59.6825L80.0775 59.6944L86.9998 66.8854L93.9338 59.6825C94.5682 59.0481 94.9176 58.2046 94.9176 57.3074V56.8501C94.9176 54.9982 93.4108 53.4914 91.5588 53.4914ZM89.6391 61.4092H87.8796V63.1687H86.1201V61.4092H84.3606V59.6497H86.1201V57.8902H87.8796V59.6497H89.6391V61.4092Z" fill="#396AFF"/>
</g>
<defs>
<clipPath id="clip0_112_1132">
<rect width="30" height="30" fill="white" transform="translate(72 45)"/>
</clipPath>
</defs>
</svg>
